<svg width="24" height="25" viewBox="0 0 24 25" fill="none" xmlns="http://www.w3.org/2000/svg">
<g id="google">
<circle id="Ellipse" cx="12" cy="12.2002" r="12" fill="white"/>
<g id="icons8-google">
<mask id="mask0_266_392" style="mask-type:luminance" maskUnits="userSpaceOnUse" x="3" y="3" width="18" height="19">
<rect id="Background" x="3" y="3.2002" width="18" height="18" fill="white"/>
</mask>
<g mask="url(#mask0_266_392)">
<path id="Shape" fill-rule="evenodd" clip-rule="evenodd" d="M19.3541 10.7313H18.75V10.7002H12V13.7002H16.2386C15.6203 15.4466 13.9586 16.7002 12 16.7002C9.51488 16.7002 7.5 14.6853 7.5 12.2002C7.5 9.71507 9.51488 7.7002 12 7.7002C13.1471 7.7002 14.1907 8.13295 14.9854 8.83982L17.1067 6.71845C15.7673 5.47007 13.9755 4.7002 12 4.7002C7.85813 4.7002 4.5 8.05832 4.5 12.2002C4.5 16.3421 7.85813 19.7002 12 19.7002C16.1419 19.7002 19.5 16.3421 19.5 12.2002C19.5 11.6973 19.4483 11.2064 19.3541 10.7313V10.7313Z" fill="#FFC107"/>
<path id="Shape_2" fill-rule="evenodd" clip-rule="evenodd" d="M5.36475 8.70932L7.82887 10.5164C8.49562 8.86569 10.1104 7.7002 12 7.7002C13.1471 7.7002 14.1907 8.13295 14.9854 8.83982L17.1067 6.71845C15.7672 5.47007 13.9755 4.7002 12 4.7002C9.11925 4.7002 6.621 6.32657 5.36475 8.70932V8.70932Z" fill="#FF3D00"/>
<path id="Shape_3" fill-rule="evenodd" clip-rule="evenodd" d="M12.0001 19.7005C13.9374 19.7005 15.6976 18.9591 17.0285 17.7535L14.7072 15.7892C13.9542 16.3596 13.0182 16.7005 12.0001 16.7005C10.0494 16.7005 8.39299 15.4566 7.76899 13.7207L5.32324 15.6051C6.56449 18.034 9.08524 19.7005 12.0001 19.7005V19.7005Z" fill="#4CAF50"/>
<path id="Shape_4" fill-rule="evenodd" clip-rule="evenodd" d="M19.3541 10.7313H18.75V10.7002H12V13.7002H16.2386C15.9416 14.5391 15.402 15.2624 14.706 15.7893C14.7064 15.7889 14.7068 15.7889 14.7071 15.7886L17.0284 17.7528C16.8641 17.9021 19.5 15.9502 19.5 12.2002C19.5 11.6973 19.4483 11.2064 19.3541 10.7313V10.7313Z" fill="#1976D2"/>
</g>
</g>
</g>
</svg>
