<svg width="152" height="152" viewBox="0 0 152 152" fill="none" xmlns="http://www.w3.org/2000/svg">
<g id="GlassDoor Logo" filter="url(#filter0_d_50_747)">
<path d="M148 72C148 111.765 115.765 144 76 144C36.2355 144 4 111.765 4 72C4 32.2355 36.2355 0 76 0C115.765 0 148 32.2355 148 72Z" fill="url(#paint0_linear_50_747)"/>
<path d="M91.7222 98.7141H49.2218C49.2209 100.106 49.4948 101.484 50.0279 102.77C50.561 104.056 51.3428 105.225 52.3287 106.209C53.3146 107.194 54.4853 107.975 55.7739 108.509C57.0625 109.042 58.4437 109.316 59.8388 109.317H91.7129C93.1089 109.318 94.4914 109.044 95.7813 108.512C97.0713 107.979 98.2433 107.198 99.2305 106.214C100.218 105.229 101 104.06 101.534 102.773C102.068 101.486 102.342 100.107 102.341 98.7141V55.1917C102.342 55.1407 102.332 55.0901 102.313 55.0428C102.294 54.9956 102.265 54.9526 102.229 54.9165C102.193 54.8805 102.15 54.852 102.103 54.8327C102.055 54.8135 102.004 54.8039 101.953 54.8045H92.0987C92.0485 54.8051 91.999 54.8157 91.953 54.8355C91.9069 54.8553 91.8653 54.8841 91.8305 54.9201C91.7957 54.9561 91.7684 54.9987 91.7502 55.0453C91.732 55.0919 91.7233 55.1417 91.7245 55.1917V98.7257L91.7222 98.7141ZM91.7222 35.122C93.1172 35.1226 94.4985 35.3973 95.7871 35.9305C97.0757 36.4637 98.2463 37.2449 99.2322 38.2295C100.218 39.2141 101 40.3829 101.533 41.6689C102.066 42.955 102.34 44.3332 102.339 45.7249H59.8504V89.2473C59.8486 89.3494 59.8071 89.4469 59.7347 89.5191C59.6623 89.5913 59.5646 89.6327 59.4623 89.6345H49.6077C49.5053 89.6327 49.4076 89.5913 49.3352 89.5191C49.2628 89.4469 49.2213 89.3494 49.2195 89.2473V45.7249C49.2186 44.3332 49.4925 42.955 50.0256 41.6689C50.5587 40.3829 51.3405 39.2141 52.3264 38.2295C53.3123 37.2449 54.483 36.4637 55.7716 35.9305C57.0602 35.3973 58.4414 35.1226 59.8365 35.122H91.7222Z" fill="#EBFFE2"/>
</g>
<defs>
<filter id="filter0_d_50_747" x="0" y="0" width="152" height="152" filterUnits="userSpaceOnUse" color-interpolation-filters="sRGB">
<feFlood flood-opacity="0" result="BackgroundImageFix"/>
<feColorMatrix in="SourceAlpha" type="matrix" values="0 0 0 0 0 0 0 0 0 0 0 0 0 0 0 0 0 0 127 0" result="hardAlpha"/>
<feOffset dy="4"/>
<feGaussianBlur stdDeviation="2"/>
<feComposite in2="hardAlpha" operator="out"/>
<feColorMatrix type="matrix" values="0 0 0 0 0 0 0 0 0 0 0 0 0 0 0 0 0 0 0.25 0"/>
<feBlend mode="normal" in2="BackgroundImageFix" result="effect1_dropShadow_50_747"/>
<feBlend mode="normal" in="SourceGraphic" in2="effect1_dropShadow_50_747" result="shape"/>
</filter>
<linearGradient id="paint0_linear_50_747" x1="30.561" y1="21.5122" x2="117.927" y2="129.512" gradientUnits="userSpaceOnUse">
<stop stop-color="#1BF8AC"/>
<stop offset="1" stop-color="#00B661"/>
</linearGradient>
</defs>
</svg>
