<svg width="152" height="152" viewBox="0 0 152 152" fill="none" xmlns="http://www.w3.org/2000/svg">
<g id="Indeed Logo" filter="url(#filter0_d_50_732)">
<path d="M148 72C148 111.765 115.765 144 76 144C36.2355 144 4 111.765 4 72C4 32.2355 36.2355 0 76 0C115.765 0 148 32.2355 148 72Z" fill="url(#paint0_linear_50_732)"/>
<path d="M80.5787 63.2343C72.5082 67.3743 63.4734 59.6572 66.2881 51.0339C69.1154 42.4081 80.9624 41.5246 85.0266 49.6405C85.631 50.825 85.9955 52.1173 86.099 53.443C86.2026 54.7688 86.0433 56.102 85.6303 57.366C85.2172 58.6301 84.5585 59.8 83.6921 60.8088C82.8256 61.8176 81.7684 62.6453 80.5812 63.2444L80.5787 63.2343ZM69.7465 30.4551C78.0543 27.4334 87.5611 27.5899 94.6749 33.7696C96.1767 35.0088 97.3578 36.5917 98.1181 38.3842C98.8275 40.6965 95.5937 38.1444 95.1595 37.8187C92.912 36.2845 90.4783 35.0426 87.9171 34.123C73.9017 29.8391 60.6461 37.6471 52.457 49.7945C49.1163 55.1501 46.5656 60.9596 44.8838 67.0436C44.7262 67.7907 44.4884 68.5186 44.1744 69.2146C43.8084 69.8987 44.0028 67.3592 44.0028 67.2834C44.3057 64.7464 44.7929 62.222 45.4493 59.7481C49.2485 46.5102 57.6648 35.4913 69.7465 30.4425V30.4551ZM69.8652 101.125V71.6229C70.7058 71.7137 71.4934 71.7541 72.3365 71.7541C76.1635 71.7667 79.9097 70.7141 83.1838 68.7425V101.113C83.1838 103.89 82.6689 105.927 81.4193 107.27C80.8042 107.945 80.0492 108.479 79.2069 108.833C78.3646 109.187 77.4552 109.353 76.5422 109.32C75.6385 109.352 74.7387 109.186 73.9067 108.831C73.0747 108.477 72.3309 107.944 71.7282 107.27C70.4937 105.914 69.85 103.864 69.85 101.128L69.8652 101.125Z" fill="white"/>
</g>
<defs>
<filter id="filter0_d_50_732" x="0" y="0" width="152" height="152" filterUnits="userSpaceOnUse" color-interpolation-filters="sRGB">
<feFlood flood-opacity="0" result="BackgroundImageFix"/>
<feColorMatrix in="SourceAlpha" type="matrix" values="0 0 0 0 0 0 0 0 0 0 0 0 0 0 0 0 0 0 127 0" result="hardAlpha"/>
<feOffset dy="4"/>
<feGaussianBlur stdDeviation="2"/>
<feComposite in2="hardAlpha" operator="out"/>
<feColorMatrix type="matrix" values="0 0 0 0 0 0 0 0 0 0 0 0 0 0 0 0 0 0 0.25 0"/>
<feBlend mode="normal" in2="BackgroundImageFix" result="effect1_dropShadow_50_732"/>
<feBlend mode="normal" in="SourceGraphic" in2="effect1_dropShadow_50_732" result="shape"/>
</filter>
<linearGradient id="paint0_linear_50_732" x1="22" y1="27.2195" x2="130.22" y2="112.171" gradientUnits="userSpaceOnUse">
<stop stop-color="#1F78FF"/>
<stop offset="1" stop-color="#002F93"/>
</linearGradient>
</defs>
</svg>
