<svg width="57" height="42" viewBox="0 0 57 42" fill="none" xmlns="http://www.w3.org/2000/svg">
<g id="Main Logo">
<path id="Vector" d="M8 29C12.4183 29 16 25.4183 16 21C16 16.5817 12.4183 13 8 13C3.58172 13 0 16.5817 0 21C0 25.4183 3.58172 29 8 29Z" fill="#073B3A"/>
<path id="JT" d="M30.4 10.156C30.4 9.7 30.556 9.34 30.868 9.076C31.18 8.788 31.648 8.644 32.272 8.644C32.896 8.644 33.364 8.788 33.676 9.076C33.988 9.34 34.144 9.7 34.144 10.156V20.776C34.144 22.096 33.88 23.404 33.352 24.7C32.824 25.972 32.056 27.112 31.048 28.12C30.04 29.128 28.804 29.944 27.34 30.568C25.9 31.192 24.268 31.504 22.444 31.504C21.532 31.504 20.704 31.384 19.96 31.144C19.216 30.904 18.568 30.58 18.016 30.172C17.488 29.764 17.08 29.284 16.792 28.732C16.504 28.18 16.36 27.58 16.36 26.932C16.36 26.188 16.564 25.588 16.972 25.132C17.38 24.652 17.896 24.412 18.52 24.412C19.624 24.412 20.176 24.892 20.176 25.852C20.2 27.028 20.512 27.892 21.112 28.444C21.736 28.996 22.612 29.272 23.74 29.272C24.82 29.272 25.768 29.068 26.584 28.66C27.424 28.252 28.12 27.712 28.672 27.04C29.248 26.344 29.68 25.54 29.968 24.628C30.256 23.692 30.4 22.708 30.4 21.676V10.156ZM54.9323 8.716C55.6763 8.716 56.0483 9.16 56.0483 10.048C56.0483 10.936 55.6763 11.38 54.9323 11.38H48.4163V29.992C48.4163 30.448 48.2603 30.808 47.9483 31.072C47.6363 31.36 47.1683 31.504 46.5443 31.504C45.9203 31.504 45.4523 31.36 45.1403 31.072C44.8283 30.808 44.6723 30.448 44.6723 29.992V11.38H38.1563C37.4123 11.38 37.0403 10.936 37.0403 10.048C37.0403 9.16 37.4123 8.716 38.1563 8.716H54.9323Z" fill="black"/>
</g>
</svg>
