<svg width="1387" height="396" viewBox="0 0 1387 396" fill="none" xmlns="http://www.w3.org/2000/svg">
<g id="Tracker section" filter="url(#filter0_d_164_25)">
<path id="Rectangle 6" d="M8 36C8 18.3269 22.3269 4 40 4H1347C1364.67 4 1379 18.3269 1379 36V352C1379 369.673 1364.67 384 1347 384H40C22.3269 384 8 369.673 8 352V36Z" fill="#E2F9CC"/>
<g id="Table" filter="url(#filter1_d_164_25)">
<g id="Vector">
<path fill-rule="evenodd" clip-rule="evenodd" d="M43.5 91.5C43.5 91.2239 43.7239 91 44 91H1342V92H44C43.7239 92 43.5 91.7761 43.5 91.5Z" fill="url(#paint0_linear_164_25)"/>
<path fill-rule="evenodd" clip-rule="evenodd" d="M1342 165H44V164H1342V165Z" fill="#042D2D" fill-opacity="0.93"/>
<path fill-rule="evenodd" clip-rule="evenodd" d="M1344 213H46V212H1344V213Z" fill="#042D2D" fill-opacity="0.93"/>
<path fill-rule="evenodd" clip-rule="evenodd" d="M1344 261H46V260H1344V261Z" fill="#042D2D" fill-opacity="0.93"/>
<path fill-rule="evenodd" clip-rule="evenodd" d="M1344 309H46V308H1344V309Z" fill="#042D2D" fill-opacity="0.93"/>
<path fill-rule="evenodd" clip-rule="evenodd" d="M197 309L197 91L198 91L198 309H197Z" fill="#042D2D" fill-opacity="0.93"/>
<path fill-rule="evenodd" clip-rule="evenodd" d="M294 310L294 92L295 92L295 310H294Z" fill="#042D2D" fill-opacity="0.93"/>
<path fill-rule="evenodd" clip-rule="evenodd" d="M441 309V91L442 91V309H441Z" fill="#042D2D" fill-opacity="0.93"/>
<path fill-rule="evenodd" clip-rule="evenodd" d="M609 310V92L610 92V310H609Z" fill="#042D2D" fill-opacity="0.93"/>
<path fill-rule="evenodd" clip-rule="evenodd" d="M749 309V91L750 91V309H749Z" fill="#042D2D" fill-opacity="0.93"/>
<path fill-rule="evenodd" clip-rule="evenodd" d="M860 310V92L861 92V310H860Z" fill="#042D2D" fill-opacity="0.93"/>
<path fill-rule="evenodd" clip-rule="evenodd" d="M983 309V91L984 91V309H983Z" fill="#042D2D" fill-opacity="0.93"/>
<path fill-rule="evenodd" clip-rule="evenodd" d="M1093 309V91L1094 91V309H1093Z" fill="#042D2D" fill-opacity="0.93"/>
<path fill-rule="evenodd" clip-rule="evenodd" d="M1235 310V92L1236 92V310H1235Z" fill="#042D2D" fill-opacity="0.93"/>
</g>
<g id="Types">
<g id="company">
<g id="arcticons:microsoft-company-portal">
<path id="Vector (Stroke)" fill-rule="evenodd" clip-rule="evenodd" d="M76.9529 116.757C76.8774 116.757 76.8177 116.817 76.8177 116.893V125.75C76.8177 125.768 76.8212 125.786 76.8279 125.802C76.8347 125.819 76.8446 125.834 76.8571 125.846C76.8696 125.859 76.8845 125.869 76.9008 125.875C76.9172 125.882 76.9347 125.886 76.9524 125.886L78.3336 125.886C78.4717 125.886 78.5836 125.997 78.5836 126.136C78.5836 126.274 78.4717 126.386 78.3336 126.386H76.9534M76.3177 125.75V116.893C76.3177 116.541 76.6016 116.257 76.9529 116.257H90.0471C90.3991 116.257 90.6823 116.541 90.6823 116.893V125.75C90.6823 126.102 90.3984 126.386 90.0471 126.386H84.346C84.2079 126.386 84.096 126.274 84.096 126.136C84.096 125.997 84.2079 125.886 84.346 125.886H90.0471C90.1226 125.886 90.1823 125.826 90.1823 125.75V116.893C90.1823 116.817 90.1226 116.757 90.0471 116.757H76.9529" fill="#073B3A"/>
<path id="Vector_2" d="M77.5236 129.467H85.1792C85.5527 123.037 77.212 122.763 77.5236 129.467Z" fill="#073B3A"/>
<path id="Vector (Stroke)_2" fill-rule="evenodd" clip-rule="evenodd" d="M81.1086 116.257C81.2467 116.257 81.3586 116.369 81.3586 116.507V119.51C81.3586 119.648 81.2467 119.76 81.1086 119.76C80.9706 119.76 80.8586 119.648 80.8586 119.51V116.507C80.8586 116.369 80.9706 116.257 81.1086 116.257ZM85.6397 116.257C85.7778 116.257 85.8897 116.369 85.8897 116.507V121.071H90.4322C90.5703 121.071 90.6822 121.183 90.6822 121.321C90.6822 121.459 90.5703 121.571 90.4322 121.571H85.8897V123.437H90.4322C90.5703 123.437 90.6822 123.549 90.6822 123.687C90.6822 123.825 90.5703 123.937 90.4322 123.937H85.8897V126.136C85.8897 126.274 85.7778 126.386 85.6397 126.386C85.5017 126.386 85.3897 126.274 85.3897 126.136V121.571H83.6605C83.5224 121.571 83.4105 121.459 83.4105 121.321C83.4105 121.183 83.5224 121.071 83.6605 121.071H85.3897V116.507C85.3897 116.369 85.5017 116.257 85.6397 116.257ZM76.3177 121.321C76.3177 121.183 76.4297 121.071 76.5677 121.071H79.1125C79.2506 121.071 79.3625 121.183 79.3625 121.321C79.3625 121.459 79.2506 121.571 79.1125 121.571H76.5677C76.4297 121.571 76.3177 121.459 76.3177 121.321ZM84.2846 125.647C85.0587 126.528 85.5254 127.819 85.4288 129.482C85.4211 129.614 85.3116 129.717 85.1792 129.717H77.5236C77.39 129.717 77.2801 129.612 77.2738 129.479C77.1935 127.75 77.6706 126.442 78.4547 125.568C79.2378 124.694 80.3102 124.273 81.3789 124.292C82.447 124.31 83.5123 124.767 84.2846 125.647ZM77.7659 129.217C77.7429 127.717 78.1802 126.623 78.827 125.901C79.5085 125.141 80.4394 124.776 81.3703 124.792C82.3017 124.808 83.2322 125.206 83.9089 125.977C84.5494 126.706 84.9745 127.784 84.9394 129.217H77.7659Z" fill="#073B3A"/>
<path id="Vector_3" d="M81.3977 124.114C82.6739 124.114 83.7084 123.08 83.7084 121.804C83.7084 120.527 82.6739 119.493 81.3977 119.493C80.1215 119.493 79.0869 120.527 79.0869 121.804C79.0869 123.08 80.1215 124.114 81.3977 124.114Z" fill="#F2F230"/>
<path id="Vector (Stroke)_3" fill-rule="evenodd" clip-rule="evenodd" d="M81.3977 119.743C80.2595 119.743 79.3369 120.665 79.3369 121.804C79.3369 122.942 80.2595 123.864 81.3977 123.864C82.5358 123.864 83.4584 122.942 83.4584 121.804C83.4584 120.665 82.5358 119.743 81.3977 119.743ZM78.8369 121.804C78.8369 120.389 79.9834 119.243 81.3977 119.243C82.8119 119.243 83.9584 120.389 83.9584 121.804C83.9584 123.218 82.8119 124.364 81.3977 124.364C79.9834 124.364 78.8369 123.218 78.8369 121.804Z" fill="#073B3A"/>
</g>
<g id="Company">
<path id="Vector_4" d="M171.534 117.792L166.254 130.688H164.75L166.478 126.464L162.942 117.792H164.558L167.31 124.896L170.03 117.792H171.534Z" fill="black"/>
<path id="Vector_5" d="M158.019 117.632C159.086 117.632 159.95 117.957 160.611 118.608C161.272 119.248 161.603 120.176 161.603 121.392V126.56H160.163V121.6C160.163 120.725 159.944 120.059 159.507 119.6C159.07 119.131 158.472 118.896 157.715 118.896C156.947 118.896 156.334 119.136 155.875 119.616C155.427 120.096 155.203 120.795 155.203 121.712V126.56H153.747V117.792H155.203V119.04C155.491 118.592 155.88 118.245 156.371 118C156.872 117.755 157.422 117.632 158.019 117.632Z" fill="black"/>
<path id="Vector_6" d="M142.391 122.144C142.391 121.248 142.572 120.464 142.935 119.792C143.297 119.109 143.793 118.581 144.423 118.208C145.063 117.835 145.772 117.648 146.551 117.648C147.319 117.648 147.985 117.813 148.551 118.144C149.116 118.475 149.537 118.891 149.815 119.392V117.792H151.287V126.56H149.815V124.928C149.527 125.44 149.095 125.867 148.519 126.208C147.953 126.539 147.292 126.704 146.535 126.704C145.756 126.704 145.052 126.512 144.423 126.128C143.793 125.744 143.297 125.205 142.935 124.512C142.572 123.819 142.391 123.029 142.391 122.144ZM149.815 122.16C149.815 121.499 149.681 120.923 149.415 120.432C149.148 119.941 148.785 119.568 148.327 119.312C147.879 119.045 147.383 118.912 146.839 118.912C146.295 118.912 145.799 119.04 145.351 119.296C144.903 119.552 144.545 119.925 144.279 120.416C144.012 120.907 143.879 121.483 143.879 122.144C143.879 122.816 144.012 123.403 144.279 123.904C144.545 124.395 144.903 124.773 145.351 125.04C145.799 125.296 146.295 125.424 146.839 125.424C147.383 125.424 147.879 125.296 148.327 125.04C148.785 124.773 149.148 124.395 149.415 123.904C149.681 123.403 149.815 122.821 149.815 122.16Z" fill="black"/>
<path id="Vector_7" d="M133.578 119.408C133.866 118.907 134.293 118.491 134.858 118.16C135.434 117.819 136.101 117.648 136.858 117.648C137.637 117.648 138.341 117.835 138.97 118.208C139.61 118.581 140.111 119.109 140.474 119.792C140.837 120.464 141.018 121.248 141.018 122.144C141.018 123.029 140.837 123.819 140.474 124.512C140.111 125.205 139.61 125.744 138.97 126.128C138.341 126.512 137.637 126.704 136.858 126.704C136.111 126.704 135.45 126.539 134.874 126.208C134.309 125.867 133.877 125.445 133.578 124.944V130.72H132.122V117.792H133.578V119.408ZM139.53 122.144C139.53 121.483 139.397 120.907 139.13 120.416C138.863 119.925 138.501 119.552 138.042 119.296C137.594 119.04 137.098 118.912 136.554 118.912C136.021 118.912 135.525 119.045 135.066 119.312C134.618 119.568 134.255 119.947 133.978 120.448C133.711 120.939 133.578 121.509 133.578 122.16C133.578 122.821 133.711 123.403 133.978 123.904C134.255 124.395 134.618 124.773 135.066 125.04C135.525 125.296 136.021 125.424 136.554 125.424C137.098 125.424 137.594 125.296 138.042 125.04C138.501 124.773 138.863 124.395 139.13 123.904C139.397 123.403 139.53 122.816 139.53 122.144Z" fill="black"/>
<path id="Vector_8" d="M126.182 117.632C126.864 117.632 127.472 117.776 128.006 118.064C128.539 118.341 128.96 118.763 129.27 119.328C129.579 119.893 129.734 120.581 129.734 121.392V126.56H128.294V121.6C128.294 120.725 128.075 120.059 127.638 119.6C127.211 119.131 126.63 118.896 125.894 118.896C125.136 118.896 124.534 119.141 124.086 119.632C123.638 120.112 123.414 120.811 123.414 121.728V126.56H121.974V121.6C121.974 120.725 121.755 120.059 121.318 119.6C120.891 119.131 120.31 118.896 119.574 118.896C118.816 118.896 118.214 119.141 117.766 119.632C117.318 120.112 117.094 120.811 117.094 121.728V126.56H115.638V117.792H117.094V119.056C117.382 118.597 117.766 118.245 118.246 118C118.736 117.755 119.275 117.632 119.862 117.632C120.598 117.632 121.248 117.797 121.814 118.128C122.379 118.459 122.8 118.944 123.078 119.584C123.323 118.965 123.728 118.485 124.294 118.144C124.859 117.803 125.488 117.632 126.182 117.632Z" fill="black"/>
<path id="Vector_9" d="M109.227 126.704C108.406 126.704 107.659 126.517 106.987 126.144C106.326 125.771 105.803 125.243 105.419 124.56C105.046 123.867 104.859 123.067 104.859 122.16C104.859 121.264 105.051 120.475 105.435 119.792C105.83 119.099 106.363 118.571 107.035 118.208C107.707 117.835 108.459 117.648 109.291 117.648C110.123 117.648 110.875 117.835 111.547 118.208C112.219 118.571 112.747 119.093 113.131 119.776C113.526 120.459 113.723 121.253 113.723 122.16C113.723 123.067 113.521 123.867 113.115 124.56C112.721 125.243 112.182 125.771 111.499 126.144C110.817 126.517 110.059 126.704 109.227 126.704ZM109.227 125.424C109.75 125.424 110.241 125.301 110.699 125.056C111.158 124.811 111.526 124.443 111.803 123.952C112.091 123.461 112.235 122.864 112.235 122.16C112.235 121.456 112.097 120.859 111.819 120.368C111.542 119.877 111.179 119.515 110.731 119.28C110.283 119.035 109.798 118.912 109.275 118.912C108.742 118.912 108.251 119.035 107.803 119.28C107.366 119.515 107.014 119.877 106.747 120.368C106.481 120.859 106.347 121.456 106.347 122.16C106.347 122.875 106.475 123.477 106.731 123.968C106.998 124.459 107.35 124.827 107.787 125.072C108.225 125.307 108.705 125.424 109.227 125.424Z" fill="black"/>
<path id="Vector_10" d="M92.5 120.976C92.5 119.888 92.7453 118.912 93.236 118.048C93.7267 117.173 94.3933 116.491 95.236 116C96.0893 115.509 97.0333 115.264 98.068 115.264C99.284 115.264 100.345 115.557 101.252 116.144C102.159 116.731 102.82 117.563 103.236 118.64H101.492C101.183 117.968 100.735 117.451 100.148 117.088C99.572 116.725 98.8787 116.544 98.068 116.544C97.2893 116.544 96.5907 116.725 95.972 117.088C95.3533 117.451 94.868 117.968 94.516 118.64C94.164 119.301 93.988 120.08 93.988 120.976C93.988 121.861 94.164 122.64 94.516 123.312C94.868 123.973 95.3533 124.485 95.972 124.848C96.5907 125.211 97.2893 125.392 98.068 125.392C98.8787 125.392 99.572 125.216 100.148 124.864C100.735 124.501 101.183 123.984 101.492 123.312H103.236C102.82 124.379 102.159 125.205 101.252 125.792C100.345 126.368 99.284 126.656 98.068 126.656C97.0333 126.656 96.0893 126.416 95.236 125.936C94.3933 125.445 93.7267 124.768 93.236 123.904C92.7453 123.04 92.5 122.064 92.5 120.976Z" fill="black"/>
</g>
</g>
<g id="role">
<g id="carbon:user-role">
<g id="Vector_11">
<path d="M233.568 125.492L230.533 122.492L233.568 119.492L234.283 120.197L231.963 122.492L234.283 124.787L233.568 125.492ZM230.533 129.992H229.533V127.492C229.533 126.829 229.27 126.193 228.801 125.724C228.332 125.255 227.696 124.992 227.033 124.992H224.033C223.37 124.992 222.735 125.255 222.266 125.724C221.797 126.193 221.533 126.829 221.533 127.492V129.992H220.533V127.492C220.533 126.564 220.902 125.673 221.559 125.017C222.215 124.361 223.105 123.992 224.033 123.992H227.033C227.962 123.992 228.852 124.361 229.508 125.017C230.165 125.673 230.533 126.564 230.533 127.492V129.992ZM225.533 116.992C226.028 116.992 226.511 117.139 226.922 117.413C227.333 117.688 227.654 118.078 227.843 118.535C228.032 118.992 228.082 119.495 227.985 119.98C227.889 120.465 227.651 120.91 227.301 121.26C226.952 121.609 226.506 121.847 226.021 121.944C225.536 122.04 225.034 121.991 224.577 121.802C224.12 121.612 223.729 121.292 223.455 120.881C223.18 120.47 223.033 119.986 223.033 119.492C223.033 118.829 223.297 118.193 223.766 117.724C224.235 117.255 224.87 116.992 225.533 116.992ZM225.533 115.992C224.841 115.992 224.165 116.197 223.589 116.582C223.013 116.966 222.565 117.513 222.3 118.153C222.035 118.792 221.966 119.496 222.101 120.175C222.236 120.854 222.569 121.477 223.059 121.967C223.548 122.456 224.172 122.79 224.851 122.925C225.53 123.06 226.233 122.99 226.873 122.726C227.512 122.461 228.059 122.012 228.444 121.436C228.828 120.861 229.033 120.184 229.033 119.492C229.033 118.564 228.665 117.673 228.008 117.017C227.352 116.361 226.462 115.992 225.533 115.992Z" fill="#073B3A"/>
<path d="M225.533 116.992C226.028 116.992 226.511 117.139 226.922 117.413C227.333 117.688 227.654 118.078 227.843 118.535C228.032 118.992 228.082 119.495 227.985 119.98C227.889 120.465 227.651 120.91 227.301 121.26C226.952 121.609 226.506 121.847 226.021 121.944C225.536 122.04 225.034 121.991 224.577 121.802C224.12 121.612 223.729 121.292 223.455 120.881C223.18 120.47 223.033 119.986 223.033 119.492C223.033 118.829 223.297 118.193 223.766 117.724C224.235 117.255 224.87 116.992 225.533 116.992Z" fill="#F2F230"/>
</g>
</g>
<g id="Role">
<path id="Vector_12" d="M267.44 124.12C267.44 124.397 267.424 124.691 267.392 125H260.384C260.437 125.864 260.73 126.541 261.264 127.032C261.808 127.512 262.464 127.752 263.232 127.752C263.861 127.752 264.384 127.608 264.8 127.32C265.226 127.021 265.525 126.627 265.696 126.136H267.264C267.029 126.979 266.56 127.667 265.856 128.2C265.152 128.723 264.277 128.984 263.232 128.984C262.4 128.984 261.653 128.797 260.992 128.424C260.341 128.051 259.829 127.523 259.456 126.84C259.082 126.147 258.896 125.347 258.896 124.44C258.896 123.533 259.077 122.739 259.44 122.056C259.802 121.373 260.309 120.851 260.96 120.488C261.621 120.115 262.378 119.928 263.232 119.928C264.064 119.928 264.8 120.109 265.44 120.472C266.08 120.835 266.57 121.336 266.912 121.976C267.264 122.605 267.44 123.32 267.44 124.12ZM265.936 123.816C265.936 123.261 265.813 122.787 265.568 122.392C265.322 121.987 264.986 121.683 264.56 121.48C264.144 121.267 263.68 121.16 263.168 121.16C262.432 121.16 261.802 121.395 261.28 121.864C260.768 122.333 260.474 122.984 260.4 123.816H265.936Z" fill="black"/>
<path id="Vector_13" d="M256.958 117V128.84H255.502V117H256.958Z" fill="black"/>
<path id="Vector_14" d="M249.092 128.984C248.271 128.984 247.524 128.797 246.852 128.424C246.191 128.051 245.668 127.523 245.284 126.84C244.911 126.147 244.724 125.347 244.724 124.44C244.724 123.544 244.916 122.755 245.3 122.072C245.695 121.379 246.228 120.851 246.9 120.488C247.572 120.115 248.324 119.928 249.156 119.928C249.988 119.928 250.74 120.115 251.412 120.488C252.084 120.851 252.612 121.373 252.996 122.056C253.391 122.739 253.588 123.533 253.588 124.44C253.588 125.347 253.385 126.147 252.98 126.84C252.585 127.523 252.047 128.051 251.364 128.424C250.681 128.797 249.924 128.984 249.092 128.984ZM249.092 127.704C249.615 127.704 250.105 127.581 250.564 127.336C251.023 127.091 251.391 126.723 251.668 126.232C251.956 125.741 252.1 125.144 252.1 124.44C252.1 123.736 251.961 123.139 251.684 122.648C251.407 122.157 251.044 121.795 250.596 121.56C250.148 121.315 249.663 121.192 249.14 121.192C248.607 121.192 248.116 121.315 247.668 121.56C247.231 121.795 246.879 122.157 246.612 122.648C246.345 123.139 246.212 123.736 246.212 124.44C246.212 125.155 246.34 125.757 246.596 126.248C246.863 126.739 247.215 127.107 247.652 127.352C248.089 127.587 248.569 127.704 249.092 127.704Z" fill="black"/>
<path id="Vector_15" d="M241.405 128.84L238.749 124.28H236.989V128.84H235.533V117.688H239.133C239.976 117.688 240.685 117.832 241.261 118.12C241.848 118.408 242.285 118.797 242.573 119.288C242.861 119.779 243.005 120.339 243.005 120.968C243.005 121.736 242.781 122.413 242.333 123C241.896 123.587 241.235 123.976 240.349 124.168L243.149 128.84H241.405ZM236.989 123.112H239.133C239.923 123.112 240.515 122.92 240.909 122.536C241.304 122.141 241.501 121.619 241.501 120.968C241.501 120.307 241.304 119.795 240.909 119.432C240.525 119.069 239.933 118.888 239.133 118.888H236.989V123.112Z" fill="black"/>
</g>
</g>
<g id="Category">
<g id="lets-icons:menu">
<g id="Group">
<path id="Vector_16" d="M320.44 115.992H334.44C334.992 115.992 335.44 116.44 335.44 116.992V119.992C335.44 120.544 334.992 120.992 334.44 120.992H320.44C319.887 120.992 319.44 120.544 319.44 119.992V116.992C319.44 116.44 319.887 115.992 320.44 115.992Z" fill="#F2F230"/>
<path id="Vector (Stroke)_4" fill-rule="evenodd" clip-rule="evenodd" d="M320.44 116.492C320.164 116.492 319.94 116.716 319.94 116.992V119.992C319.94 120.268 320.164 120.492 320.44 120.492H334.44C334.716 120.492 334.94 120.268 334.94 119.992V116.992C334.94 116.716 334.716 116.492 334.44 116.492H320.44ZM318.94 116.992C318.94 116.164 319.611 115.492 320.44 115.492H334.44C335.268 115.492 335.94 116.164 335.94 116.992V119.992C335.94 120.82 335.268 121.492 334.44 121.492H320.44C319.611 121.492 318.94 120.82 318.94 119.992V116.992Z" fill="#073B3A"/>
<path id="Vector_17" d="M320.44 124.992H334.44C334.992 124.992 335.44 125.44 335.44 125.992V128.992C335.44 129.544 334.992 129.992 334.44 129.992H320.44C319.887 129.992 319.44 129.544 319.44 128.992V125.992C319.44 125.44 319.887 124.992 320.44 124.992Z" fill="#F2F230"/>
<path id="Vector (Stroke)_5" fill-rule="evenodd" clip-rule="evenodd" d="M320.44 125.492C320.164 125.492 319.94 125.716 319.94 125.992V128.992C319.94 129.268 320.164 129.492 320.44 129.492H334.44C334.716 129.492 334.94 129.268 334.94 128.992V125.992C334.94 125.716 334.716 125.492 334.44 125.492H320.44ZM318.94 125.992C318.94 125.164 319.611 124.492 320.44 124.492H334.44C335.268 124.492 335.94 125.164 335.94 125.992V128.992C335.94 129.82 335.268 130.492 334.44 130.492H320.44C319.611 130.492 318.94 129.82 318.94 128.992V125.992Z" fill="#073B3A"/>
</g>
</g>
<g id="Category_2">
<path id="Vector_18" d="M413.473 117.712L408.193 130.608H406.689L408.417 126.384L404.881 117.712H406.497L409.249 124.816L411.969 117.712H413.473Z" fill="black"/>
<path id="Vector_19" d="M401.408 119.136C401.664 118.635 402.027 118.245 402.496 117.968C402.976 117.691 403.558 117.552 404.24 117.552V119.056H403.856C402.224 119.056 401.408 119.941 401.408 121.712V126.48H399.952V117.712H401.408V119.136Z" fill="black"/>
<path id="Vector_20" d="M393.542 126.624C392.721 126.624 391.974 126.437 391.302 126.064C390.641 125.691 390.118 125.163 389.734 124.48C389.361 123.787 389.174 122.987 389.174 122.08C389.174 121.184 389.366 120.395 389.75 119.712C390.145 119.019 390.678 118.491 391.35 118.128C392.022 117.755 392.774 117.568 393.606 117.568C394.438 117.568 395.19 117.755 395.862 118.128C396.534 118.491 397.062 119.013 397.446 119.696C397.841 120.379 398.038 121.173 398.038 122.08C398.038 122.987 397.835 123.787 397.43 124.48C397.035 125.163 396.497 125.691 395.814 126.064C395.131 126.437 394.374 126.624 393.542 126.624ZM393.542 125.344C394.065 125.344 394.555 125.221 395.014 124.976C395.473 124.731 395.841 124.363 396.118 123.872C396.406 123.381 396.55 122.784 396.55 122.08C396.55 121.376 396.411 120.779 396.134 120.288C395.857 119.797 395.494 119.435 395.046 119.2C394.598 118.955 394.113 118.832 393.59 118.832C393.057 118.832 392.566 118.955 392.118 119.2C391.681 119.435 391.329 119.797 391.062 120.288C390.795 120.779 390.662 121.376 390.662 122.08C390.662 122.795 390.79 123.397 391.046 123.888C391.313 124.379 391.665 124.747 392.102 124.992C392.539 125.227 393.019 125.344 393.542 125.344Z" fill="black"/>
<path id="Vector_21" d="M382.522 117.568C383.279 117.568 383.94 117.733 384.506 118.064C385.082 118.395 385.508 118.811 385.786 119.312V117.712H387.258V126.672C387.258 127.472 387.087 128.181 386.746 128.8C386.404 129.429 385.914 129.92 385.274 130.272C384.644 130.624 383.908 130.8 383.066 130.8C381.914 130.8 380.954 130.528 380.186 129.984C379.418 129.44 378.964 128.699 378.826 127.76H380.266C380.426 128.293 380.756 128.72 381.258 129.04C381.759 129.371 382.362 129.536 383.066 129.536C383.866 129.536 384.516 129.285 385.018 128.784C385.53 128.283 385.786 127.579 385.786 126.672V124.832C385.498 125.344 385.071 125.771 384.506 126.112C383.94 126.453 383.279 126.624 382.522 126.624C381.743 126.624 381.034 126.432 380.394 126.048C379.764 125.664 379.268 125.125 378.906 124.432C378.543 123.739 378.362 122.949 378.362 122.064C378.362 121.168 378.543 120.384 378.906 119.712C379.268 119.029 379.764 118.501 380.394 118.128C381.034 117.755 381.743 117.568 382.522 117.568ZM385.786 122.08C385.786 121.419 385.652 120.843 385.386 120.352C385.119 119.861 384.756 119.488 384.298 119.232C383.85 118.965 383.354 118.832 382.81 118.832C382.266 118.832 381.77 118.96 381.322 119.216C380.874 119.472 380.516 119.845 380.25 120.336C379.983 120.827 379.85 121.403 379.85 122.064C379.85 122.736 379.983 123.323 380.25 123.824C380.516 124.315 380.874 124.693 381.322 124.96C381.77 125.216 382.266 125.344 382.81 125.344C383.354 125.344 383.85 125.216 384.298 124.96C384.756 124.693 385.119 124.315 385.386 123.824C385.652 123.323 385.786 122.741 385.786 122.08Z" fill="black"/>
<path id="Vector_22" d="M376.984 121.76C376.984 122.037 376.968 122.331 376.936 122.64H369.928C369.981 123.504 370.274 124.181 370.808 124.672C371.352 125.152 372.008 125.392 372.776 125.392C373.405 125.392 373.928 125.248 374.344 124.96C374.77 124.661 375.069 124.267 375.24 123.776H376.808C376.573 124.619 376.104 125.307 375.4 125.84C374.696 126.363 373.821 126.624 372.776 126.624C371.944 126.624 371.197 126.437 370.536 126.064C369.885 125.691 369.373 125.163 369 124.48C368.626 123.787 368.44 122.987 368.44 122.08C368.44 121.173 368.621 120.379 368.984 119.696C369.346 119.013 369.853 118.491 370.504 118.128C371.165 117.755 371.922 117.568 372.776 117.568C373.608 117.568 374.344 117.749 374.984 118.112C375.624 118.475 376.114 118.976 376.456 119.616C376.808 120.245 376.984 120.96 376.984 121.76ZM375.48 121.456C375.48 120.901 375.357 120.427 375.112 120.032C374.866 119.627 374.53 119.323 374.104 119.12C373.688 118.907 373.224 118.8 372.712 118.8C371.976 118.8 371.346 119.035 370.824 119.504C370.312 119.973 370.018 120.624 369.944 121.456H375.48Z" fill="black"/>
<path id="Vector_23" d="M364.932 118.912V124.08C364.932 124.507 365.022 124.811 365.204 124.992C365.385 125.163 365.7 125.248 366.148 125.248H367.22V126.48H365.908C365.097 126.48 364.489 126.293 364.084 125.92C363.678 125.547 363.476 124.933 363.476 124.08V118.912H362.34V117.712H363.476V115.504H364.932V117.712H367.22V118.912H364.932Z" fill="black"/>
<path id="Vector_24" d="M351.799 122.064C351.799 121.168 351.98 120.384 352.343 119.712C352.706 119.029 353.202 118.501 353.831 118.128C354.471 117.755 355.18 117.568 355.959 117.568C356.727 117.568 357.394 117.733 357.959 118.064C358.524 118.395 358.946 118.811 359.223 119.312V117.712H360.695V126.48H359.223V124.848C358.935 125.36 358.503 125.787 357.927 126.128C357.362 126.459 356.7 126.624 355.943 126.624C355.164 126.624 354.46 126.432 353.831 126.048C353.202 125.664 352.706 125.125 352.343 124.432C351.98 123.739 351.799 122.949 351.799 122.064ZM359.223 122.08C359.223 121.419 359.09 120.843 358.823 120.352C358.556 119.861 358.194 119.488 357.735 119.232C357.287 118.965 356.791 118.832 356.247 118.832C355.703 118.832 355.207 118.96 354.759 119.216C354.311 119.472 353.954 119.845 353.687 120.336C353.42 120.827 353.287 121.403 353.287 122.064C353.287 122.736 353.42 123.323 353.687 123.824C353.954 124.315 354.311 124.693 354.759 124.96C355.207 125.216 355.703 125.344 356.247 125.344C356.791 125.344 357.287 125.216 357.735 124.96C358.194 124.693 358.556 124.315 358.823 123.824C359.09 123.323 359.223 122.741 359.223 122.08Z" fill="black"/>
<path id="Vector_25" d="M339.44 120.896C339.44 119.808 339.685 118.832 340.176 117.968C340.666 117.093 341.333 116.411 342.176 115.92C343.029 115.429 343.973 115.184 345.008 115.184C346.224 115.184 347.285 115.477 348.192 116.064C349.098 116.651 349.76 117.483 350.176 118.56H348.432C348.122 117.888 347.674 117.371 347.088 117.008C346.512 116.645 345.818 116.464 345.008 116.464C344.229 116.464 343.53 116.645 342.912 117.008C342.293 117.371 341.808 117.888 341.456 118.56C341.104 119.221 340.928 120 340.928 120.896C340.928 121.781 341.104 122.56 341.456 123.232C341.808 123.893 342.293 124.405 342.912 124.768C343.53 125.131 344.229 125.312 345.008 125.312C345.818 125.312 346.512 125.136 347.088 124.784C347.674 124.421 348.122 123.904 348.432 123.232H350.176C349.76 124.299 349.098 125.125 348.192 125.712C347.285 126.288 346.224 126.576 345.008 126.576C343.973 126.576 343.029 126.336 342.176 125.856C341.333 125.365 340.666 124.688 340.176 123.824C339.685 122.96 339.44 121.984 339.44 120.896Z" fill="black"/>
</g>
</g>
<g id="Opportunity">
<g id="iconamoon:category-thin">
<g id="Group_2">
<path id="Vector (Stroke)_6" fill-rule="evenodd" clip-rule="evenodd" d="M478.473 115.492C477.093 115.492 475.973 116.611 475.973 117.992C475.973 119.373 477.093 120.492 478.473 120.492C479.854 120.492 480.973 119.373 480.973 117.992C480.973 116.611 479.854 115.492 478.473 115.492ZM474.973 117.992C474.973 116.059 476.54 114.492 478.473 114.492C480.406 114.492 481.973 116.059 481.973 117.992C481.973 119.925 480.406 121.492 478.473 121.492C476.54 121.492 474.973 119.925 474.973 117.992Z" fill="#073B3A"/>
<path id="Vector (Stroke)_7" fill-rule="evenodd" clip-rule="evenodd" d="M468.473 125.492C467.093 125.492 465.973 126.611 465.973 127.992C465.973 129.373 467.093 130.492 468.473 130.492C469.854 130.492 470.973 129.373 470.973 127.992C470.973 126.611 469.854 125.492 468.473 125.492ZM464.973 127.992C464.973 126.059 466.54 124.492 468.473 124.492C470.406 124.492 471.973 126.059 471.973 127.992C471.973 129.925 470.406 131.492 468.473 131.492C466.54 131.492 464.973 129.925 464.973 127.992Z" fill="#073B3A"/>
<g id="Vector_26">
<path d="M475.473 124.992H481.473V129.992C481.473 130.257 481.368 130.512 481.18 130.699C480.993 130.887 480.738 130.992 480.473 130.992H476.473C476.208 130.992 475.954 130.887 475.766 130.699C475.579 130.512 475.473 130.257 475.473 129.992V124.992Z" fill="#F2F230"/>
<path d="M465.473 114.992H471.473V119.992C471.473 120.257 471.368 120.512 471.18 120.699C470.993 120.887 470.738 120.992 470.473 120.992H466.473C466.208 120.992 465.954 120.887 465.766 120.699C465.579 120.512 465.473 120.257 465.473 119.992V114.992Z" fill="#F2F230"/>
</g>
<path id="Vector (Stroke)_8" fill-rule="evenodd" clip-rule="evenodd" d="M464.973 114.992C464.973 114.716 465.197 114.492 465.473 114.492H471.473C471.749 114.492 471.973 114.716 471.973 114.992V119.992C471.973 120.39 471.815 120.771 471.534 121.053C471.253 121.334 470.871 121.492 470.473 121.492H466.473C466.075 121.492 465.694 121.334 465.413 121.053C465.131 120.771 464.973 120.39 464.973 119.992V114.992ZM465.973 115.492V119.992C465.973 120.125 466.026 120.252 466.12 120.345C466.213 120.439 466.341 120.492 466.473 120.492H470.473C470.606 120.492 470.733 120.439 470.827 120.345C470.921 120.252 470.973 120.125 470.973 119.992V115.492H465.973ZM474.973 124.992C474.973 124.716 475.197 124.492 475.473 124.492H481.473C481.749 124.492 481.973 124.716 481.973 124.992V129.992C481.973 130.39 481.815 130.771 481.534 131.053C481.253 131.334 480.871 131.492 480.473 131.492H476.473C476.075 131.492 475.694 131.334 475.413 131.053C475.131 130.771 474.973 130.39 474.973 129.992V124.992ZM475.973 125.492V129.992C475.973 130.125 476.026 130.252 476.12 130.345C476.213 130.439 476.341 130.492 476.473 130.492H480.473C480.606 130.492 480.733 130.439 480.827 130.345C480.921 130.252 480.973 130.125 480.973 129.992V125.492H475.973Z" fill="#073B3A"/>
</g>
</g>
<g id="Opportunity_2">
<path id="Vector_27" d="M580.038 118.232L574.758 131.128H573.254L574.982 126.904L571.446 118.232H573.062L575.814 125.336L578.534 118.232H580.038Z" fill="black"/>
<path id="Vector_28" d="M568.434 119.432V124.6C568.434 125.027 568.525 125.331 568.706 125.512C568.887 125.683 569.202 125.768 569.65 125.768H570.722V127H569.41C568.599 127 567.991 126.813 567.586 126.44C567.181 126.067 566.978 125.453 566.978 124.6V119.432H565.842V118.232H566.978V116.024H568.434V118.232H570.722V119.432H568.434Z" fill="black"/>
<path id="Vector_29" d="M563.472 116.808C563.195 116.808 562.96 116.712 562.768 116.52C562.576 116.328 562.48 116.093 562.48 115.816C562.48 115.539 562.576 115.304 562.768 115.112C562.96 114.92 563.195 114.824 563.472 114.824C563.739 114.824 563.963 114.92 564.144 115.112C564.336 115.304 564.432 115.539 564.432 115.816C564.432 116.093 564.336 116.328 564.144 116.52C563.963 116.712 563.739 116.808 563.472 116.808ZM564.176 118.232V127H562.72V118.232H564.176Z" fill="black"/>
<path id="Vector_30" d="M556.758 118.072C557.825 118.072 558.689 118.397 559.35 119.048C560.011 119.688 560.342 120.616 560.342 121.832V127H558.902V122.04C558.902 121.165 558.683 120.499 558.246 120.04C557.809 119.571 557.211 119.336 556.454 119.336C555.686 119.336 555.073 119.576 554.614 120.056C554.166 120.536 553.942 121.235 553.942 122.152V127H552.486V118.232H553.942V119.48C554.23 119.032 554.619 118.685 555.11 118.44C555.611 118.195 556.161 118.072 556.758 118.072Z" fill="black"/>
<path id="Vector_31" d="M550.028 118.232V127H548.572V125.704C548.294 126.152 547.905 126.504 547.404 126.76C546.913 127.005 546.369 127.128 545.772 127.128C545.089 127.128 544.476 126.989 543.932 126.712C543.388 126.424 542.956 125.997 542.636 125.432C542.326 124.867 542.172 124.179 542.172 123.368V118.232H543.612V123.176C543.612 124.04 543.83 124.707 544.268 125.176C544.705 125.635 545.302 125.864 546.06 125.864C546.838 125.864 547.452 125.624 547.9 125.144C548.348 124.664 548.572 123.965 548.572 123.048V118.232H550.028Z" fill="black"/>
<path id="Vector_32" d="M538.2 119.432V124.6C538.2 125.027 538.29 125.331 538.472 125.512C538.653 125.683 538.968 125.768 539.416 125.768H540.488V127H539.176C538.365 127 537.757 126.813 537.352 126.44C536.946 126.067 536.744 125.453 536.744 124.6V119.432H535.608V118.232H536.744V116.024H538.2V118.232H540.488V119.432H538.2Z" fill="black"/>
<path id="Vector_33" d="M531.911 119.656C532.167 119.155 532.529 118.765 532.999 118.488C533.479 118.211 534.06 118.072 534.743 118.072V119.576H534.359C532.727 119.576 531.911 120.461 531.911 122.232V127H530.455V118.232H531.911V119.656Z" fill="black"/>
<path id="Vector_34" d="M524.044 127.144C523.223 127.144 522.476 126.957 521.804 126.584C521.143 126.211 520.62 125.683 520.236 125C519.863 124.307 519.676 123.507 519.676 122.6C519.676 121.704 519.868 120.915 520.252 120.232C520.647 119.539 521.18 119.011 521.852 118.648C522.524 118.275 523.276 118.088 524.108 118.088C524.94 118.088 525.692 118.275 526.364 118.648C527.036 119.011 527.564 119.533 527.948 120.216C528.343 120.899 528.54 121.693 528.54 122.6C528.54 123.507 528.338 124.307 527.932 125C527.538 125.683 526.999 126.211 526.316 126.584C525.634 126.957 524.876 127.144 524.044 127.144ZM524.044 125.864C524.567 125.864 525.058 125.741 525.516 125.496C525.975 125.251 526.343 124.883 526.62 124.392C526.908 123.901 527.052 123.304 527.052 122.6C527.052 121.896 526.914 121.299 526.636 120.808C526.359 120.317 525.996 119.955 525.548 119.72C525.1 119.475 524.615 119.352 524.092 119.352C523.559 119.352 523.068 119.475 522.62 119.72C522.183 119.955 521.831 120.317 521.564 120.808C521.298 121.299 521.164 121.896 521.164 122.6C521.164 123.315 521.292 123.917 521.548 124.408C521.815 124.899 522.167 125.267 522.604 125.512C523.042 125.747 523.522 125.864 524.044 125.864Z" fill="black"/>
<path id="Vector_35" d="M510.864 119.848C511.152 119.347 511.579 118.931 512.144 118.6C512.72 118.259 513.387 118.088 514.144 118.088C514.923 118.088 515.627 118.275 516.256 118.648C516.896 119.021 517.397 119.549 517.76 120.232C518.123 120.904 518.304 121.688 518.304 122.584C518.304 123.469 518.123 124.259 517.76 124.952C517.397 125.645 516.896 126.184 516.256 126.568C515.627 126.952 514.923 127.144 514.144 127.144C513.397 127.144 512.736 126.979 512.16 126.648C511.595 126.307 511.163 125.885 510.864 125.384V131.16H509.408V118.232H510.864V119.848ZM516.816 122.584C516.816 121.923 516.683 121.347 516.416 120.856C516.149 120.365 515.787 119.992 515.328 119.736C514.88 119.48 514.384 119.352 513.84 119.352C513.307 119.352 512.811 119.485 512.352 119.752C511.904 120.008 511.541 120.387 511.264 120.888C510.997 121.379 510.864 121.949 510.864 122.6C510.864 123.261 510.997 123.843 511.264 124.344C511.541 124.835 511.904 125.213 512.352 125.48C512.811 125.736 513.307 125.864 513.84 125.864C514.384 125.864 514.88 125.736 515.328 125.48C515.787 125.213 516.149 124.835 516.416 124.344C516.683 123.843 516.816 123.256 516.816 122.584Z" fill="black"/>
<path id="Vector_36" d="M500.051 119.848C500.339 119.347 500.766 118.931 501.331 118.6C501.907 118.259 502.574 118.088 503.331 118.088C504.11 118.088 504.814 118.275 505.443 118.648C506.083 119.021 506.585 119.549 506.947 120.232C507.31 120.904 507.491 121.688 507.491 122.584C507.491 123.469 507.31 124.259 506.947 124.952C506.585 125.645 506.083 126.184 505.443 126.568C504.814 126.952 504.11 127.144 503.331 127.144C502.585 127.144 501.923 126.979 501.347 126.648C500.782 126.307 500.35 125.885 500.051 125.384V131.16H498.595V118.232H500.051V119.848ZM506.003 122.584C506.003 121.923 505.87 121.347 505.603 120.856C505.337 120.365 504.974 119.992 504.515 119.736C504.067 119.48 503.571 119.352 503.027 119.352C502.494 119.352 501.998 119.485 501.539 119.752C501.091 120.008 500.729 120.387 500.451 120.888C500.185 121.379 500.051 121.949 500.051 122.6C500.051 123.261 500.185 123.843 500.451 124.344C500.729 124.835 501.091 125.213 501.539 125.48C501.998 125.736 502.494 125.864 503.027 125.864C503.571 125.864 504.067 125.736 504.515 125.48C504.974 125.213 505.337 124.835 505.603 124.344C505.87 123.843 506.003 123.256 506.003 122.584Z" fill="black"/>
<path id="Vector_37" d="M491.073 127.112C490.039 127.112 489.095 126.872 488.241 126.392C487.388 125.901 486.711 125.224 486.209 124.36C485.719 123.485 485.473 122.504 485.473 121.416C485.473 120.328 485.719 119.352 486.209 118.488C486.711 117.613 487.388 116.936 488.241 116.456C489.095 115.965 490.039 115.72 491.073 115.72C492.119 115.72 493.068 115.965 493.921 116.456C494.775 116.936 495.447 117.608 495.937 118.472C496.428 119.336 496.673 120.317 496.673 121.416C496.673 122.515 496.428 123.496 495.937 124.36C495.447 125.224 494.775 125.901 493.921 126.392C493.068 126.872 492.119 127.112 491.073 127.112ZM491.073 125.848C491.852 125.848 492.551 125.667 493.169 125.304C493.799 124.941 494.289 124.424 494.641 123.752C495.004 123.08 495.185 122.301 495.185 121.416C495.185 120.52 495.004 119.741 494.641 119.08C494.289 118.408 493.804 117.891 493.185 117.528C492.567 117.165 491.863 116.984 491.073 116.984C490.284 116.984 489.58 117.165 488.961 117.528C488.343 117.891 487.852 118.408 487.489 119.08C487.137 119.741 486.961 120.52 486.961 121.416C486.961 122.301 487.137 123.08 487.489 123.752C487.852 124.424 488.343 124.941 488.961 125.304C489.591 125.667 490.295 125.848 491.073 125.848Z" fill="black"/>
</g>
</g>
<g id="Location">
<g id="proicons:location">
<g id="Group_3">
<path id="Vector (Stroke)_9" fill-rule="evenodd" clip-rule="evenodd" d="M634.966 116.285C633.623 117.629 632.869 119.452 632.869 121.352C632.869 123.253 633.624 125.077 634.968 126.422L639.154 130.608C639.154 130.608 639.154 130.608 639.154 130.608C639.389 130.842 639.707 130.974 640.038 130.974C640.369 130.974 640.687 130.842 640.922 130.608C640.922 130.608 640.922 130.608 640.922 130.608L645.105 126.424C646.425 125.075 647.161 123.26 647.151 121.372C647.142 119.483 646.387 117.674 645.051 116.339C643.716 115.003 641.907 114.248 640.018 114.239C638.13 114.229 636.315 114.964 634.966 116.285ZM633.913 115.216C635.544 113.617 637.741 112.727 640.025 112.739C642.309 112.75 644.497 113.663 646.112 115.278C647.727 116.893 648.64 119.081 648.651 121.365C648.663 123.649 647.772 125.845 646.174 127.477L646.168 127.482L641.982 131.668C641.467 132.184 640.767 132.474 640.038 132.474C639.309 132.474 638.609 132.184 638.094 131.668L633.908 127.482C632.282 125.856 631.369 123.651 631.369 121.352C631.369 119.053 632.282 116.848 633.908 115.222L633.913 115.216Z" fill="#073B3A"/>
<path id="Vector_38" d="M643.038 121.352C643.038 123.009 641.695 124.352 640.038 124.352C638.381 124.352 637.038 123.009 637.038 121.352C637.038 119.695 638.381 118.352 640.038 118.352C641.695 118.352 643.038 119.695 643.038 121.352Z" fill="#F2F230"/>
<path id="Vector (Stroke)_10" fill-rule="evenodd" clip-rule="evenodd" d="M640.038 119.102C638.795 119.102 637.788 120.109 637.788 121.352C637.788 122.595 638.795 123.602 640.038 123.602C641.281 123.602 642.288 122.595 642.288 121.352C642.288 120.109 641.281 119.102 640.038 119.102ZM636.288 121.352C636.288 119.281 637.967 117.602 640.038 117.602C642.109 117.602 643.788 119.281 643.788 121.352C643.788 123.423 642.109 125.102 640.038 125.102C637.967 125.102 636.288 123.423 636.288 121.352Z" fill="#073B3A"/>
</g>
</g>
<g id="Location_2">
<path id="Vector_39" d="M713.982 120.08C715.049 120.08 715.913 120.405 716.574 121.056C717.235 121.696 717.566 122.624 717.566 123.84V129.008H716.126V124.048C716.126 123.173 715.907 122.507 715.47 122.048C715.033 121.579 714.435 121.344 713.678 121.344C712.91 121.344 712.297 121.584 711.838 122.064C711.39 122.544 711.166 123.243 711.166 124.16V129.008H709.71V120.24H711.166V121.488C711.454 121.04 711.843 120.693 712.334 120.448C712.835 120.203 713.385 120.08 713.982 120.08Z" fill="black"/>
<path id="Vector_40" d="M703.3 129.152C702.478 129.152 701.732 128.965 701.06 128.592C700.398 128.219 699.876 127.691 699.492 127.008C699.118 126.315 698.932 125.515 698.932 124.608C698.932 123.712 699.124 122.923 699.508 122.24C699.902 121.547 700.436 121.019 701.108 120.656C701.78 120.283 702.532 120.096 703.364 120.096C704.196 120.096 704.948 120.283 705.62 120.656C706.292 121.019 706.82 121.541 707.204 122.224C707.598 122.907 707.796 123.701 707.796 124.608C707.796 125.515 707.593 126.315 707.188 127.008C706.793 127.691 706.254 128.219 705.572 128.592C704.889 128.965 704.132 129.152 703.3 129.152ZM703.3 127.872C703.822 127.872 704.313 127.749 704.772 127.504C705.23 127.259 705.598 126.891 705.876 126.4C706.164 125.909 706.308 125.312 706.308 124.608C706.308 123.904 706.169 123.307 705.892 122.816C705.614 122.325 705.252 121.963 704.804 121.728C704.356 121.483 703.87 121.36 703.348 121.36C702.814 121.36 702.324 121.483 701.876 121.728C701.438 121.963 701.086 122.325 700.82 122.816C700.553 123.307 700.42 123.904 700.42 124.608C700.42 125.323 700.548 125.925 700.804 126.416C701.07 126.907 701.422 127.275 701.86 127.52C702.297 127.755 702.777 127.872 703.3 127.872Z" fill="black"/>
<path id="Vector_41" d="M696.29 118.816C696.013 118.816 695.778 118.72 695.586 118.528C695.394 118.336 695.298 118.101 695.298 117.824C695.298 117.547 695.394 117.312 695.586 117.12C695.778 116.928 696.013 116.832 696.29 116.832C696.557 116.832 696.781 116.928 696.962 117.12C697.154 117.312 697.25 117.547 697.25 117.824C697.25 118.101 697.154 118.336 696.962 118.528C696.781 118.72 696.557 118.816 696.29 118.816ZM696.994 120.24V129.008H695.538V120.24H696.994Z" fill="black"/>
<path id="Vector_42" d="M691.486 121.44V126.608C691.486 127.035 691.576 127.339 691.758 127.52C691.939 127.691 692.254 127.776 692.702 127.776H693.774V129.008H692.462C691.651 129.008 691.043 128.821 690.638 128.448C690.232 128.075 690.03 127.461 690.03 126.608V121.44H688.894V120.24H690.03V118.032H691.486V120.24H693.774V121.44H691.486Z" fill="black"/>
<path id="Vector_43" d="M678.353 124.592C678.353 123.696 678.535 122.912 678.897 122.24C679.26 121.557 679.756 121.029 680.385 120.656C681.025 120.283 681.735 120.096 682.513 120.096C683.281 120.096 683.948 120.261 684.513 120.592C685.079 120.923 685.5 121.339 685.777 121.84V120.24H687.249V129.008H685.777V127.376C685.489 127.888 685.057 128.315 684.481 128.656C683.916 128.987 683.255 129.152 682.497 129.152C681.719 129.152 681.015 128.96 680.385 128.576C679.756 128.192 679.26 127.653 678.897 126.96C678.535 126.267 678.353 125.477 678.353 124.592ZM685.777 124.608C685.777 123.947 685.644 123.371 685.377 122.88C685.111 122.389 684.748 122.016 684.289 121.76C683.841 121.493 683.345 121.36 682.801 121.36C682.257 121.36 681.761 121.488 681.313 121.744C680.865 122 680.508 122.373 680.241 122.864C679.975 123.355 679.841 123.931 679.841 124.592C679.841 125.264 679.975 125.851 680.241 126.352C680.508 126.843 680.865 127.221 681.313 127.488C681.761 127.744 682.257 127.872 682.801 127.872C683.345 127.872 683.841 127.744 684.289 127.488C684.748 127.221 685.111 126.843 685.377 126.352C685.644 125.851 685.777 125.269 685.777 124.608Z" fill="black"/>
<path id="Vector_44" d="M668.635 124.608C668.635 123.701 668.816 122.912 669.179 122.24C669.541 121.557 670.043 121.029 670.683 120.656C671.333 120.283 672.075 120.096 672.907 120.096C673.984 120.096 674.869 120.357 675.563 120.88C676.267 121.403 676.731 122.128 676.955 123.056H675.387C675.237 122.523 674.944 122.101 674.507 121.792C674.08 121.483 673.547 121.328 672.907 121.328C672.075 121.328 671.403 121.616 670.891 122.192C670.379 122.757 670.123 123.563 670.123 124.608C670.123 125.664 670.379 126.48 670.891 127.056C671.403 127.632 672.075 127.92 672.907 127.92C673.547 127.92 674.08 127.771 674.507 127.472C674.933 127.173 675.227 126.747 675.387 126.192H676.955C676.72 127.088 676.251 127.808 675.547 128.352C674.843 128.885 673.963 129.152 672.907 129.152C672.075 129.152 671.333 128.965 670.683 128.592C670.043 128.219 669.541 127.691 669.179 127.008C668.816 126.325 668.635 125.525 668.635 124.608Z" fill="black"/>
<path id="Vector_45" d="M662.768 129.152C661.947 129.152 661.2 128.965 660.528 128.592C659.867 128.219 659.344 127.691 658.96 127.008C658.587 126.315 658.4 125.515 658.4 124.608C658.4 123.712 658.592 122.923 658.976 122.24C659.371 121.547 659.904 121.019 660.576 120.656C661.248 120.283 662 120.096 662.832 120.096C663.664 120.096 664.416 120.283 665.088 120.656C665.76 121.019 666.288 121.541 666.672 122.224C667.067 122.907 667.264 123.701 667.264 124.608C667.264 125.515 667.062 126.315 666.656 127.008C666.262 127.691 665.723 128.219 665.04 128.592C664.358 128.965 663.6 129.152 662.768 129.152ZM662.768 127.872C663.291 127.872 663.782 127.749 664.24 127.504C664.699 127.259 665.067 126.891 665.344 126.4C665.632 125.909 665.776 125.312 665.776 124.608C665.776 123.904 665.638 123.307 665.36 122.816C665.083 122.325 664.72 121.963 664.272 121.728C663.824 121.483 663.339 121.36 662.816 121.36C662.283 121.36 661.792 121.483 661.344 121.728C660.907 121.963 660.555 122.325 660.288 122.816C660.022 123.307 659.888 123.904 659.888 124.608C659.888 125.323 660.016 125.925 660.272 126.416C660.539 126.907 660.891 127.275 661.328 127.52C661.766 127.755 662.246 127.872 662.768 127.872Z" fill="black"/>
<path id="Vector_46" d="M653.494 127.824H657.398V129.008H652.038V117.856H653.494V127.824Z" fill="black"/>
</g>
</g>
<g id="Type">
<g id="jam:menu">
<path id="Vector_47" d="M771.566 117.992H776.566C776.831 117.992 777.085 118.097 777.273 118.285C777.46 118.472 777.566 118.727 777.566 118.992C777.566 119.257 777.46 119.512 777.273 119.699C777.085 119.887 776.831 119.992 776.566 119.992H771.566C771.301 119.992 771.046 119.887 770.859 119.699C770.671 119.512 770.566 119.257 770.566 118.992C770.566 118.727 770.671 118.472 770.859 118.285C771.046 118.097 771.301 117.992 771.566 117.992ZM778.566 125.992H783.566C783.831 125.992 784.085 126.097 784.273 126.285C784.46 126.472 784.566 126.727 784.566 126.992C784.566 127.257 784.46 127.512 784.273 127.699C784.085 127.887 783.831 127.992 783.566 127.992H778.566C778.301 127.992 778.046 127.887 777.859 127.699C777.671 127.512 777.566 127.257 777.566 126.992C777.566 126.727 777.671 126.472 777.859 126.285C778.046 126.097 778.301 125.992 778.566 125.992ZM771.566 121.992H783.566C783.831 121.992 784.085 122.097 784.273 122.285C784.46 122.472 784.566 122.727 784.566 122.992C784.566 123.257 784.46 123.512 784.273 123.699C784.085 123.887 783.831 123.992 783.566 123.992H771.566C771.301 123.992 771.046 123.887 770.859 123.699C770.671 123.512 770.566 123.257 770.566 122.992C770.566 122.727 770.671 122.472 770.859 122.285C771.046 122.097 771.301 121.992 771.566 121.992Z" fill="#073B3A"/>
</g>
<g id="Type_2">
<path id="Vector_48" d="M826.738 121.768C826.738 122.045 826.722 122.339 826.69 122.648H819.682C819.736 123.512 820.029 124.189 820.562 124.68C821.106 125.16 821.762 125.4 822.53 125.4C823.16 125.4 823.682 125.256 824.098 124.968C824.525 124.669 824.824 124.275 824.994 123.784H826.562C826.328 124.627 825.858 125.315 825.154 125.848C824.45 126.371 823.576 126.632 822.53 126.632C821.698 126.632 820.952 126.445 820.29 126.072C819.64 125.699 819.128 125.171 818.754 124.488C818.381 123.795 818.194 122.995 818.194 122.088C818.194 121.181 818.376 120.387 818.738 119.704C819.101 119.021 819.608 118.499 820.258 118.136C820.92 117.763 821.677 117.576 822.53 117.576C823.362 117.576 824.098 117.757 824.738 118.12C825.378 118.483 825.869 118.984 826.21 119.624C826.562 120.253 826.738 120.968 826.738 121.768ZM825.234 121.464C825.234 120.909 825.112 120.435 824.866 120.04C824.621 119.635 824.285 119.331 823.858 119.128C823.442 118.915 822.978 118.808 822.466 118.808C821.73 118.808 821.101 119.043 820.578 119.512C820.066 119.981 819.773 120.632 819.698 121.464H825.234Z" fill="black"/>
<path id="Vector_49" d="M809.382 119.336C809.67 118.835 810.096 118.419 810.662 118.088C811.238 117.747 811.904 117.576 812.662 117.576C813.44 117.576 814.144 117.763 814.774 118.136C815.414 118.509 815.915 119.037 816.278 119.72C816.64 120.392 816.822 121.176 816.822 122.072C816.822 122.957 816.64 123.747 816.278 124.44C815.915 125.133 815.414 125.672 814.774 126.056C814.144 126.44 813.44 126.632 812.662 126.632C811.915 126.632 811.254 126.467 810.678 126.136C810.112 125.795 809.68 125.373 809.382 124.872V130.648H807.926V117.72H809.382V119.336ZM815.334 122.072C815.334 121.411 815.2 120.835 814.934 120.344C814.667 119.853 814.304 119.48 813.846 119.224C813.398 118.968 812.902 118.84 812.358 118.84C811.824 118.84 811.328 118.973 810.87 119.24C810.422 119.496 810.059 119.875 809.782 120.376C809.515 120.867 809.382 121.437 809.382 122.088C809.382 122.749 809.515 123.331 809.782 123.832C810.059 124.323 810.422 124.701 810.87 124.968C811.328 125.224 811.824 125.352 812.358 125.352C812.902 125.352 813.398 125.224 813.846 124.968C814.304 124.701 814.667 124.323 814.934 123.832C815.2 123.331 815.334 122.744 815.334 122.072Z" fill="black"/>
<path id="Vector_50" d="M806.462 117.72L801.182 130.616H799.678L801.406 126.392L797.87 117.72H799.486L802.238 124.824L804.958 117.72H806.462Z" fill="black"/>
<path id="Vector_51" d="M797.118 115.336V116.52H794.078V126.488H792.622V116.52H789.566V115.336H797.118Z" fill="black"/>
</g>
</g>
<g id="Status">
<g id="lets-icons:status">
<path id="Vector_52" fill-rule="evenodd" clip-rule="evenodd" d="M893.718 120.245C893.34 119.287 892.769 118.417 892.041 117.689C891.313 116.96 890.443 116.389 889.485 116.011C889.259 116.268 889.078 116.561 888.951 116.879C889.847 117.205 890.66 117.722 891.334 118.396C892.008 119.07 892.526 119.883 892.851 120.779C893.169 120.652 893.462 120.471 893.719 120.245M886.967 116.495L886.738 116.492C885.443 116.492 884.177 116.879 883.103 117.603C882.029 118.328 881.197 119.356 880.711 120.557C880.226 121.758 880.111 123.077 880.38 124.344C880.65 125.611 881.291 126.768 882.223 127.668C883.155 128.568 884.335 129.169 885.61 129.393C886.886 129.618 888.2 129.457 889.383 128.93C890.566 128.403 891.565 127.534 892.251 126.436C892.937 125.337 893.28 124.058 893.234 122.764C893.578 122.656 893.903 122.514 894.21 122.339C894.228 122.554 894.237 122.772 894.238 122.992C894.238 124.503 893.781 125.979 892.928 127.226C892.075 128.474 890.865 129.434 889.456 129.982C888.048 130.529 886.507 130.639 885.035 130.296C883.563 129.952 882.23 129.173 881.209 128.058C880.188 126.944 879.527 125.548 879.313 124.052C879.1 122.556 879.343 121.03 880.011 119.675C880.68 118.319 881.742 117.197 883.059 116.456C884.376 115.715 885.886 115.388 887.391 115.52C887.215 115.829 887.073 116.156 886.966 116.496" fill="#073B3A"/>
<path id="Vector_53" d="M891.738 120.992C893.395 120.992 894.738 119.649 894.738 117.992C894.738 116.335 893.395 114.992 891.738 114.992C890.081 114.992 888.738 116.335 888.738 117.992C888.738 119.649 890.081 120.992 891.738 120.992Z" fill="#F2F230"/>
<path id="Vector (Stroke)_11" fill-rule="evenodd" clip-rule="evenodd" d="M891.738 119.992C892.843 119.992 893.738 119.097 893.738 117.992C893.738 116.887 892.843 115.992 891.738 115.992C890.634 115.992 889.738 116.887 889.738 117.992C889.738 119.097 890.634 119.992 891.738 119.992ZM894.738 117.992C894.738 119.649 893.395 120.992 891.738 120.992C890.081 120.992 888.738 119.649 888.738 117.992C888.738 116.335 890.081 114.992 891.738 114.992C893.395 114.992 894.738 116.335 894.738 117.992Z" fill="#073B3A"/>
</g>
<g id="Status_2">
<path id="Vector_54" d="M944.256 128.712C943.584 128.712 942.981 128.6 942.448 128.376C941.915 128.141 941.493 127.821 941.184 127.416C940.875 127 940.704 126.525 940.672 125.992H942.176C942.219 126.429 942.421 126.787 942.784 127.064C943.157 127.341 943.643 127.48 944.24 127.48C944.795 127.48 945.232 127.357 945.552 127.112C945.872 126.867 946.032 126.557 946.032 126.184C946.032 125.8 945.861 125.517 945.52 125.336C945.179 125.144 944.651 124.957 943.936 124.776C943.285 124.605 942.752 124.435 942.336 124.264C941.931 124.083 941.579 123.821 941.28 123.48C940.992 123.128 940.848 122.669 940.848 122.104C940.848 121.656 940.981 121.245 941.248 120.872C941.515 120.499 941.893 120.205 942.384 119.992C942.875 119.768 943.435 119.656 944.064 119.656C945.035 119.656 945.819 119.901 946.416 120.392C947.013 120.883 947.333 121.555 947.376 122.408H945.92C945.888 121.949 945.701 121.581 945.36 121.304C945.029 121.027 944.581 120.888 944.016 120.888C943.493 120.888 943.077 121 942.768 121.224C942.459 121.448 942.304 121.741 942.304 122.104C942.304 122.392 942.395 122.632 942.576 122.824C942.768 123.005 943.003 123.155 943.28 123.272C943.568 123.379 943.963 123.501 944.464 123.64C945.093 123.811 945.605 123.981 946 124.152C946.395 124.312 946.731 124.557 947.008 124.888C947.296 125.219 947.445 125.651 947.456 126.184C947.456 126.664 947.323 127.096 947.056 127.48C946.789 127.864 946.411 128.168 945.92 128.392C945.44 128.605 944.885 128.712 944.256 128.712Z" fill="black"/>
<path id="Vector_55" d="M938.694 119.8V128.568H937.238V127.272C936.96 127.72 936.571 128.072 936.07 128.328C935.579 128.573 935.035 128.696 934.438 128.696C933.755 128.696 933.142 128.557 932.598 128.28C932.054 127.992 931.622 127.565 931.302 127C930.992 126.435 930.838 125.747 930.838 124.936V119.8H932.278V124.744C932.278 125.608 932.496 126.275 932.934 126.744C933.371 127.203 933.968 127.432 934.726 127.432C935.504 127.432 936.118 127.192 936.566 126.712C937.014 126.232 937.238 125.533 937.238 124.616V119.8H938.694Z" fill="black"/>
<path id="Vector_56" d="M926.865 121V126.168C926.865 126.595 926.956 126.899 927.137 127.08C927.319 127.251 927.633 127.336 928.081 127.336H929.153V128.568H927.841C927.031 128.568 926.423 128.381 926.017 128.008C925.612 127.635 925.409 127.021 925.409 126.168V121H924.273V119.8H925.409V117.592H926.865V119.8H929.153V121H926.865Z" fill="black"/>
<path id="Vector_57" d="M913.733 124.152C913.733 123.256 913.914 122.472 914.277 121.8C914.64 121.117 915.136 120.589 915.765 120.216C916.405 119.843 917.114 119.656 917.893 119.656C918.661 119.656 919.328 119.821 919.893 120.152C920.458 120.483 920.88 120.899 921.157 121.4V119.8H922.629V128.568H921.157V126.936C920.869 127.448 920.437 127.875 919.861 128.216C919.296 128.547 918.634 128.712 917.877 128.712C917.098 128.712 916.394 128.52 915.765 128.136C915.136 127.752 914.64 127.213 914.277 126.52C913.914 125.827 913.733 125.037 913.733 124.152ZM921.157 124.168C921.157 123.507 921.024 122.931 920.757 122.44C920.49 121.949 920.128 121.576 919.669 121.32C919.221 121.053 918.725 120.92 918.181 120.92C917.637 120.92 917.141 121.048 916.693 121.304C916.245 121.56 915.888 121.933 915.621 122.424C915.354 122.915 915.221 123.491 915.221 124.152C915.221 124.824 915.354 125.411 915.621 125.912C915.888 126.403 916.245 126.781 916.693 127.048C917.141 127.304 917.637 127.432 918.181 127.432C918.725 127.432 919.221 127.304 919.669 127.048C920.128 126.781 920.49 126.403 920.757 125.912C921.024 125.411 921.157 124.829 921.157 124.168Z" fill="black"/>
<path id="Vector_58" d="M910.225 121V126.168C910.225 126.595 910.315 126.899 910.497 127.08C910.678 127.251 910.993 127.336 911.441 127.336H912.513V128.568H911.201C910.39 128.568 909.782 128.381 909.377 128.008C908.971 127.635 908.769 127.021 908.769 126.168V121H907.633V119.8H908.769V117.592H910.225V119.8H912.513V121H910.225Z" fill="black"/>
<path id="Vector_59" d="M902.594 128.68C901.858 128.68 901.197 128.552 900.61 128.296C900.034 128.029 899.581 127.667 899.25 127.208C898.919 126.739 898.749 126.2 898.738 125.592H900.29C900.343 126.115 900.557 126.557 900.93 126.92C901.314 127.272 901.869 127.448 902.594 127.448C903.287 127.448 903.831 127.277 904.226 126.936C904.631 126.584 904.834 126.136 904.834 125.592C904.834 125.165 904.717 124.819 904.482 124.552C904.247 124.285 903.954 124.083 903.602 123.944C903.25 123.805 902.775 123.656 902.178 123.496C901.442 123.304 900.85 123.112 900.402 122.92C899.965 122.728 899.586 122.429 899.266 122.024C898.957 121.608 898.802 121.053 898.802 120.36C898.802 119.752 898.957 119.213 899.266 118.744C899.575 118.275 900.007 117.912 900.562 117.656C901.127 117.4 901.773 117.272 902.498 117.272C903.543 117.272 904.397 117.533 905.058 118.056C905.73 118.579 906.109 119.272 906.194 120.136H904.594C904.541 119.709 904.317 119.336 903.922 119.016C903.527 118.685 903.005 118.52 902.354 118.52C901.746 118.52 901.25 118.68 900.866 119C900.482 119.309 900.29 119.747 900.29 120.312C900.29 120.717 900.402 121.048 900.626 121.304C900.861 121.56 901.143 121.757 901.474 121.896C901.815 122.024 902.29 122.173 902.898 122.344C903.634 122.547 904.226 122.749 904.674 122.952C905.122 123.144 905.506 123.448 905.826 123.864C906.146 124.269 906.306 124.824 906.306 125.528C906.306 126.072 906.162 126.584 905.874 127.064C905.586 127.544 905.159 127.933 904.594 128.232C904.029 128.531 903.362 128.68 902.594 128.68Z" fill="black"/>
</g>
</g>
<g id="Date">
<g id="stash:data-date-light">
<path id="Vector_60" d="M1005.96 117.992C1005.82 117.992 1005.7 118.05 1005.6 118.153C1005.51 118.256 1005.46 118.396 1005.46 118.542C1005.46 118.688 1005.51 118.828 1005.6 118.931C1005.7 119.034 1005.82 119.092 1005.96 119.092H1008.96C1009.09 119.092 1009.22 119.034 1009.31 118.931C1009.4 118.828 1009.46 118.688 1009.46 118.542C1009.46 118.396 1009.4 118.256 1009.31 118.153C1009.22 118.05 1009.09 117.992 1008.96 117.992H1005.96ZM1004.96 124.042C1004.96 124.334 1004.85 124.613 1004.66 124.82C1004.48 125.026 1004.22 125.142 1003.96 125.142C1003.69 125.142 1003.44 125.026 1003.25 124.82C1003.06 124.613 1002.96 124.334 1002.96 124.042C1002.96 123.75 1003.06 123.47 1003.25 123.264C1003.44 123.058 1003.69 122.942 1003.96 122.942C1004.22 122.942 1004.48 123.058 1004.66 123.264C1004.85 123.47 1004.96 123.75 1004.96 124.042ZM1004.96 127.892C1004.96 128.184 1004.85 128.463 1004.66 128.67C1004.48 128.876 1004.22 128.992 1003.96 128.992C1003.69 128.992 1003.44 128.876 1003.25 128.67C1003.06 128.463 1002.96 128.184 1002.96 127.892C1002.96 127.6 1003.06 127.32 1003.25 127.114C1003.44 126.908 1003.69 126.792 1003.96 126.792C1004.22 126.792 1004.48 126.908 1004.66 127.114C1004.85 127.32 1004.96 127.6 1004.96 127.892ZM1007.46 125.142C1007.72 125.142 1007.98 125.026 1008.16 124.82C1008.35 124.613 1008.46 124.334 1008.46 124.042C1008.46 123.75 1008.35 123.47 1008.16 123.264C1007.98 123.058 1007.72 122.942 1007.46 122.942C1007.19 122.942 1006.94 123.058 1006.75 123.264C1006.56 123.47 1006.46 123.75 1006.46 124.042C1006.46 124.334 1006.56 124.613 1006.75 124.82C1006.94 125.026 1007.19 125.142 1007.46 125.142ZM1008.46 127.892C1008.46 128.184 1008.35 128.463 1008.16 128.67C1007.98 128.876 1007.72 128.992 1007.46 128.992C1007.19 128.992 1006.94 128.876 1006.75 128.67C1006.56 128.463 1006.46 128.184 1006.46 127.892C1006.46 127.6 1006.56 127.32 1006.75 127.114C1006.94 126.908 1007.19 126.792 1007.46 126.792C1007.72 126.792 1007.98 126.908 1008.16 127.114C1008.35 127.32 1008.46 127.6 1008.46 127.892ZM1010.96 125.142C1011.22 125.142 1011.48 125.026 1011.66 124.82C1011.85 124.613 1011.96 124.334 1011.96 124.042C1011.96 123.75 1011.85 123.47 1011.66 123.264C1011.48 123.058 1011.22 122.942 1010.96 122.942C1010.69 122.942 1010.44 123.058 1010.25 123.264C1010.06 123.47 1009.96 123.75 1009.96 124.042C1009.96 124.334 1010.06 124.613 1010.25 124.82C1010.44 125.026 1010.69 125.142 1010.96 125.142Z" fill="#F2F230"/>
<path id="Vector_61" fill-rule="evenodd" clip-rule="evenodd" d="M1003.46 114.492C1003.59 114.492 1003.72 114.545 1003.81 114.638C1003.9 114.732 1003.96 114.859 1003.96 114.992V115.992H1010.96V114.992C1010.96 114.859 1011.01 114.732 1011.1 114.638C1011.2 114.545 1011.32 114.492 1011.46 114.492C1011.59 114.492 1011.72 114.545 1011.81 114.638C1011.9 114.732 1011.96 114.859 1011.96 114.992V115.995C1012.2 115.997 1012.42 116.006 1012.61 116.021C1012.97 116.051 1013.29 116.114 1013.59 116.264C1014.06 116.504 1014.44 116.886 1014.68 117.357C1014.83 117.653 1014.9 117.973 1014.93 118.337C1014.96 118.692 1014.96 119.129 1014.96 119.671V127.313C1014.96 127.855 1014.96 128.293 1014.93 128.646C1014.9 129.011 1014.83 129.331 1014.68 129.627C1014.44 130.097 1014.06 130.479 1013.59 130.719C1013.29 130.87 1012.97 130.933 1012.61 130.963C1012.26 130.992 1011.82 130.992 1011.28 130.992H1003.63C1003.09 130.992 1002.65 130.992 1002.3 130.963C1001.94 130.933 1001.62 130.87 1001.32 130.719C1000.85 130.479 1000.47 130.097 1000.23 129.627C1000.08 129.331 1000.01 129.011 999.985 128.647C999.956 128.292 999.956 127.854 999.956 127.312V119.672C999.956 119.197 999.956 118.804 999.976 118.475L999.985 118.339C1000.01 117.974 1000.08 117.654 1000.23 117.358C1000.47 116.887 1000.85 116.505 1001.32 116.265C1001.62 116.115 1001.94 116.052 1002.3 116.022C1002.49 116.007 1002.71 115.998 1002.96 115.996V114.992C1002.96 114.859 1003.01 114.732 1003.1 114.638C1003.2 114.545 1003.32 114.492 1003.46 114.492ZM1002.96 117.492V116.995C1002.76 116.997 1002.57 117.004 1002.38 117.018C1002.08 117.042 1001.91 117.088 1001.77 117.155C1001.49 117.299 1001.26 117.528 1001.12 117.811C1001.05 117.943 1001.01 118.117 1000.98 118.419C1000.96 118.728 1000.96 119.124 1000.96 119.692V120.242H1013.96V119.692C1013.96 119.124 1013.96 118.728 1013.93 118.419C1013.91 118.117 1013.86 117.943 1013.79 117.811C1013.65 117.528 1013.42 117.299 1013.14 117.155C1013 117.088 1012.83 117.042 1012.53 117.018C1012.34 117.004 1012.15 116.997 1011.96 116.995V117.492C1011.96 117.625 1011.9 117.752 1011.81 117.845C1011.72 117.939 1011.59 117.992 1011.46 117.992C1011.32 117.992 1011.2 117.939 1011.1 117.845C1011.01 117.752 1010.96 117.625 1010.96 117.492V116.992H1003.96V117.492C1003.96 117.625 1003.9 117.752 1003.81 117.845C1003.72 117.939 1003.59 117.992 1003.46 117.992C1003.32 117.992 1003.2 117.939 1003.1 117.845C1003.01 117.752 1002.96 117.625 1002.96 117.492ZM1013.96 121.242H1000.96V127.292C1000.96 127.86 1000.96 128.257 1000.98 128.565C1001.01 128.867 1001.05 129.041 1001.12 129.173C1001.26 129.455 1001.49 129.685 1001.77 129.829C1001.91 129.896 1002.08 129.942 1002.38 129.966C1002.69 129.992 1003.09 129.992 1003.66 129.992H1011.26C1011.82 129.992 1012.22 129.992 1012.53 129.966C1012.83 129.942 1013 129.896 1013.14 129.829C1013.42 129.685 1013.65 129.455 1013.79 129.173C1013.86 129.041 1013.91 128.867 1013.93 128.565C1013.96 128.257 1013.96 127.86 1013.96 127.292V121.242Z" fill="#073B3A"/>
</g>
<g id="Date_2">
<path id="Vector_62" d="M1055.41 123.776C1055.41 124.053 1055.39 124.347 1055.36 124.656H1048.35C1048.41 125.52 1048.7 126.197 1049.23 126.688C1049.78 127.168 1050.43 127.408 1051.2 127.408C1051.83 127.408 1052.35 127.264 1052.77 126.976C1053.2 126.677 1053.49 126.283 1053.67 125.792H1055.23C1055 126.635 1054.53 127.323 1053.83 127.856C1053.12 128.379 1052.25 128.64 1051.2 128.64C1050.37 128.64 1049.62 128.453 1048.96 128.08C1048.31 127.707 1047.8 127.179 1047.43 126.496C1047.05 125.803 1046.87 125.003 1046.87 124.096C1046.87 123.189 1047.05 122.395 1047.41 121.712C1047.77 121.029 1048.28 120.507 1048.93 120.144C1049.59 119.771 1050.35 119.584 1051.2 119.584C1052.03 119.584 1052.77 119.765 1053.41 120.128C1054.05 120.491 1054.54 120.992 1054.88 121.632C1055.23 122.261 1055.41 122.976 1055.41 123.776ZM1053.91 123.472C1053.91 122.917 1053.78 122.443 1053.54 122.048C1053.29 121.643 1052.96 121.339 1052.53 121.136C1052.11 120.923 1051.65 120.816 1051.14 120.816C1050.4 120.816 1049.77 121.051 1049.25 121.52C1048.74 121.989 1048.44 122.64 1048.37 123.472H1053.91Z" fill="black"/>
<path id="Vector_63" d="M1043.36 120.928V126.096C1043.36 126.523 1043.45 126.827 1043.63 127.008C1043.81 127.179 1044.12 127.264 1044.57 127.264H1045.64V128.496H1044.33C1043.52 128.496 1042.91 128.309 1042.51 127.936C1042.1 127.563 1041.9 126.949 1041.9 126.096V120.928H1040.76V119.728H1041.9V117.52H1043.36V119.728H1045.64V120.928H1043.36Z" fill="black"/>
<path id="Vector_64" d="M1030.22 124.08C1030.22 123.184 1030.41 122.4 1030.77 121.728C1031.13 121.045 1031.63 120.517 1032.26 120.144C1032.9 119.771 1033.61 119.584 1034.38 119.584C1035.15 119.584 1035.82 119.749 1036.38 120.08C1036.95 120.411 1037.37 120.827 1037.65 121.328V119.728H1039.12V128.496H1037.65V126.864C1037.36 127.376 1036.93 127.803 1036.35 128.144C1035.79 128.475 1035.13 128.64 1034.37 128.64C1033.59 128.64 1032.89 128.448 1032.26 128.064C1031.63 127.68 1031.13 127.141 1030.77 126.448C1030.41 125.755 1030.22 124.965 1030.22 124.08ZM1037.65 124.096C1037.65 123.435 1037.52 122.859 1037.25 122.368C1036.98 121.877 1036.62 121.504 1036.16 121.248C1035.71 120.981 1035.22 120.848 1034.67 120.848C1034.13 120.848 1033.63 120.976 1033.18 121.232C1032.74 121.488 1032.38 121.861 1032.11 122.352C1031.85 122.843 1031.71 123.419 1031.71 124.08C1031.71 124.752 1031.85 125.339 1032.11 125.84C1032.38 126.331 1032.74 126.709 1033.18 126.976C1033.63 127.232 1034.13 127.36 1034.67 127.36C1035.22 127.36 1035.71 127.232 1036.16 126.976C1036.62 126.709 1036.98 126.331 1037.25 125.84C1037.52 125.339 1037.65 124.757 1037.65 124.096Z" fill="black"/>
<path id="Vector_65" d="M1022.93 117.344C1024.14 117.344 1025.19 117.573 1026.08 118.032C1026.98 118.48 1027.66 119.125 1028.13 119.968C1028.61 120.811 1028.85 121.803 1028.85 122.944C1028.85 124.085 1028.61 125.077 1028.13 125.92C1027.66 126.752 1026.98 127.392 1026.08 127.84C1025.19 128.277 1024.14 128.496 1022.93 128.496H1019.46V117.344H1022.93ZM1022.93 127.296C1024.37 127.296 1025.47 126.917 1026.22 126.16C1026.98 125.392 1027.36 124.32 1027.36 122.944C1027.36 121.557 1026.98 120.475 1026.21 119.696C1025.45 118.917 1024.36 118.528 1022.93 118.528H1020.91V127.296H1022.93Z" fill="black"/>
</g>
</g>
<g id="in-touch person">
<g id="material-symbols-light:person-outline">
<g id="Vector_66">
<path d="M1115.41 116.385C1114.58 116.385 1113.88 116.091 1113.29 115.503C1112.7 114.915 1112.41 114.209 1112.41 113.385C1112.41 112.561 1112.7 111.854 1113.29 111.265C1113.88 110.676 1114.58 110.383 1115.41 110.386C1116.24 110.389 1116.94 110.683 1117.53 111.266C1118.11 111.849 1118.41 112.556 1118.41 113.386C1118.41 114.216 1118.12 114.922 1117.53 115.504C1116.94 116.086 1116.23 116.379 1115.41 116.385ZM1108.41 123.616V121.97C1108.41 121.557 1108.53 121.171 1108.77 120.812C1109.01 120.452 1109.33 120.173 1109.74 119.974C1110.68 119.521 1111.63 119.182 1112.57 118.956C1113.52 118.729 1114.46 118.616 1115.41 118.616C1116.36 118.616 1117.3 118.729 1118.25 118.956C1119.19 119.183 1120.14 119.522 1121.08 119.974C1121.48 120.173 1121.81 120.452 1122.05 120.812C1122.29 121.171 1122.41 121.557 1122.41 121.97V123.616H1108.41ZM1109.41 122.616H1121.41V121.97C1121.41 121.749 1121.34 121.54 1121.19 121.345C1121.05 121.15 1120.85 120.986 1120.6 120.851C1119.78 120.452 1118.93 120.147 1118.06 119.935C1117.18 119.723 1116.3 119.617 1115.41 119.616C1114.52 119.615 1113.64 119.721 1112.76 119.934C1111.89 120.147 1111.04 120.452 1110.22 120.85C1109.96 120.985 1109.77 121.149 1109.62 121.344C1109.48 121.539 1109.41 121.748 1109.41 121.97V122.616ZM1115.41 115.386C1115.96 115.386 1116.43 115.19 1116.82 114.798C1116.91 114.711 1116.99 114.62 1117.05 114.526C1117.17 114.366 1117.25 114.195 1117.31 114.013C1117.38 113.816 1117.41 113.607 1117.41 113.384C1117.41 112.833 1117.21 112.363 1116.82 111.972C1116.43 111.581 1115.96 111.385 1115.41 111.384C1115.08 111.383 1114.78 111.452 1114.51 111.591C1114.46 111.615 1114.42 111.641 1114.37 111.67C1114.24 111.753 1114.11 111.853 1114 111.972C1113.61 112.365 1113.41 112.836 1113.41 113.384C1113.41 113.932 1113.6 114.403 1114 114.797C1114.39 115.191 1114.86 115.387 1115.41 115.384" fill="#073B3A"/>
<path d="M1117.05 114.526C1117.17 114.366 1117.25 114.195 1117.31 114.013C1117.37 113.835 1117.39 113.635 1117.41 113.384C1117.37 112.754 1117.25 112.454 1116.82 111.972C1116.35 111.537 1116.03 111.428 1115.41 111.384C1115.02 111.415 1114.76 111.468 1114.51 111.591C1114.46 111.615 1114.42 111.641 1114.37 111.67C1114.25 111.748 1114.13 111.846 1114 111.972C1113.61 112.403 1113.46 112.697 1113.41 113.384C1113.45 114.101 1113.63 114.366 1114 114.797C1114.39 115.191 1114.86 115.387 1115.41 115.384C1116.06 115.345 1116.37 115.209 1116.82 114.798C1116.91 114.703 1116.99 114.613 1117.05 114.526Z" fill="#F2F230"/>
</g>
</g>
<g id="In-touch Person">
<path id="Vector_67" d="M1183.06 131.912C1184.12 131.912 1184.99 132.237 1185.65 132.888C1186.31 133.528 1186.64 134.456 1186.64 135.672V140.84H1185.2V135.88C1185.2 135.005 1184.98 134.339 1184.54 133.88C1184.11 133.411 1183.51 133.176 1182.75 133.176C1181.98 133.176 1181.37 133.416 1180.91 133.896C1180.46 134.376 1180.24 135.075 1180.24 135.992V140.84H1178.78V132.072H1180.24V133.32C1180.53 132.872 1180.92 132.525 1181.41 132.28C1181.91 132.035 1182.46 131.912 1183.06 131.912Z" fill="black"/>
<path id="Vector_68" d="M1172.37 140.984C1171.55 140.984 1170.81 140.797 1170.13 140.424C1169.47 140.051 1168.95 139.523 1168.57 138.84C1168.19 138.147 1168.01 137.347 1168.01 136.44C1168.01 135.544 1168.2 134.755 1168.58 134.072C1168.98 133.379 1169.51 132.851 1170.18 132.488C1170.85 132.115 1171.61 131.928 1172.44 131.928C1173.27 131.928 1174.02 132.115 1174.69 132.488C1175.37 132.851 1175.89 133.373 1176.28 134.056C1176.67 134.739 1176.87 135.533 1176.87 136.44C1176.87 137.347 1176.67 138.147 1176.26 138.84C1175.87 139.523 1175.33 140.051 1174.65 140.424C1173.96 140.797 1173.21 140.984 1172.37 140.984ZM1172.37 139.704C1172.9 139.704 1173.39 139.581 1173.85 139.336C1174.3 139.091 1174.67 138.723 1174.95 138.232C1175.24 137.741 1175.38 137.144 1175.38 136.44C1175.38 135.736 1175.24 135.139 1174.97 134.648C1174.69 134.157 1174.33 133.795 1173.88 133.56C1173.43 133.315 1172.94 133.192 1172.42 133.192C1171.89 133.192 1171.4 133.315 1170.95 133.56C1170.51 133.795 1170.16 134.157 1169.89 134.648C1169.63 135.139 1169.49 135.736 1169.49 136.44C1169.49 137.155 1169.62 137.757 1169.88 138.248C1170.14 138.739 1170.5 139.107 1170.93 139.352C1171.37 139.587 1171.85 139.704 1172.37 139.704Z" fill="black"/>
<path id="Vector_69" d="M1163.29 140.984C1162.62 140.984 1162.02 140.872 1161.49 140.648C1160.95 140.413 1160.53 140.093 1160.22 139.688C1159.91 139.272 1159.74 138.797 1159.71 138.264H1161.21C1161.26 138.701 1161.46 139.059 1161.82 139.336C1162.2 139.613 1162.68 139.752 1163.28 139.752C1163.83 139.752 1164.27 139.629 1164.59 139.384C1164.91 139.139 1165.07 138.829 1165.07 138.456C1165.07 138.072 1164.9 137.789 1164.56 137.608C1164.22 137.416 1163.69 137.229 1162.97 137.048C1162.32 136.877 1161.79 136.707 1161.37 136.536C1160.97 136.355 1160.62 136.093 1160.32 135.752C1160.03 135.4 1159.89 134.941 1159.89 134.376C1159.89 133.928 1160.02 133.517 1160.29 133.144C1160.55 132.771 1160.93 132.477 1161.42 132.264C1161.91 132.04 1162.47 131.928 1163.1 131.928C1164.07 131.928 1164.86 132.173 1165.45 132.664C1166.05 133.155 1166.37 133.827 1166.41 134.68H1164.96C1164.93 134.221 1164.74 133.853 1164.4 133.576C1164.07 133.299 1163.62 133.16 1163.05 133.16C1162.53 133.16 1162.12 133.272 1161.81 133.496C1161.5 133.72 1161.34 134.013 1161.34 134.376C1161.34 134.664 1161.43 134.904 1161.61 135.096C1161.81 135.277 1162.04 135.427 1162.32 135.544C1162.61 135.651 1163 135.773 1163.5 135.912C1164.13 136.083 1164.64 136.253 1165.04 136.424C1165.43 136.584 1165.77 136.829 1166.05 137.16C1166.33 137.491 1166.48 137.923 1166.49 138.456C1166.49 138.936 1166.36 139.368 1166.09 139.752C1165.83 140.136 1165.45 140.44 1164.96 140.664C1164.48 140.877 1163.92 140.984 1163.29 140.984Z" fill="black"/>
<path id="Vector_70" d="M1155.68 133.496C1155.93 132.995 1156.3 132.605 1156.77 132.328C1157.25 132.051 1157.83 131.912 1158.51 131.912V133.416H1158.13C1156.49 133.416 1155.68 134.301 1155.68 136.072V140.84H1154.22V132.072H1155.68V133.496Z" fill="black"/>
<path id="Vector_71" d="M1152.3 136.12C1152.3 136.397 1152.28 136.691 1152.25 137H1145.24C1145.3 137.864 1145.59 138.541 1146.12 139.032C1146.67 139.512 1147.32 139.752 1148.09 139.752C1148.72 139.752 1149.24 139.608 1149.66 139.32C1150.09 139.021 1150.39 138.627 1150.56 138.136H1152.12C1151.89 138.979 1151.42 139.667 1150.72 140.2C1150.01 140.723 1149.14 140.984 1148.09 140.984C1147.26 140.984 1146.51 140.797 1145.85 140.424C1145.2 140.051 1144.69 139.523 1144.32 138.84C1143.94 138.147 1143.76 137.347 1143.76 136.44C1143.76 135.533 1143.94 134.739 1144.3 134.056C1144.66 133.373 1145.17 132.851 1145.82 132.488C1146.48 132.115 1147.24 131.928 1148.09 131.928C1148.92 131.928 1149.66 132.109 1150.3 132.472C1150.94 132.835 1151.43 133.336 1151.77 133.976C1152.12 134.605 1152.3 135.32 1152.3 136.12ZM1150.8 135.816C1150.8 135.261 1150.67 134.787 1150.43 134.392C1150.18 133.987 1149.85 133.683 1149.42 133.48C1149 133.267 1148.54 133.16 1148.03 133.16C1147.29 133.16 1146.66 133.395 1146.14 133.864C1145.63 134.333 1145.33 134.984 1145.26 135.816H1150.8Z" fill="black"/>
<path id="Vector_72" d="M1142.49 132.952C1142.49 133.88 1142.17 134.653 1141.53 135.272C1140.9 135.88 1139.94 136.184 1138.63 136.184H1136.49V140.84H1135.03V129.688H1138.63C1139.89 129.688 1140.85 129.992 1141.5 130.6C1142.16 131.208 1142.49 131.992 1142.49 132.952ZM1138.63 134.984C1139.44 134.984 1140.04 134.808 1140.43 134.456C1140.81 134.104 1141 133.603 1141 132.952C1141 131.576 1140.21 130.888 1138.63 130.888H1136.49V134.984H1138.63Z" fill="black"/>
<path id="Vector_73" d="M1190.76 107.912C1191.42 107.912 1192.02 108.056 1192.55 108.344C1193.09 108.621 1193.5 109.043 1193.8 109.608C1194.11 110.173 1194.27 110.861 1194.27 111.672V116.84H1192.83V111.88C1192.83 111.005 1192.61 110.339 1192.17 109.88C1191.73 109.411 1191.13 109.176 1190.38 109.176C1189.61 109.176 1189 109.416 1188.54 109.896C1188.09 110.376 1187.87 111.075 1187.87 111.992V116.84H1186.41V105H1187.87V109.32C1188.15 108.872 1188.55 108.525 1189.05 108.28C1189.56 108.035 1190.13 107.912 1190.76 107.912Z" fill="black"/>
<path id="Vector_74" d="M1176.15 112.44C1176.15 111.533 1176.33 110.744 1176.69 110.072C1177.05 109.389 1177.55 108.861 1178.19 108.488C1178.85 108.115 1179.59 107.928 1180.42 107.928C1181.5 107.928 1182.38 108.189 1183.07 108.712C1183.78 109.235 1184.24 109.96 1184.47 110.888H1182.9C1182.75 110.355 1182.46 109.933 1182.02 109.624C1181.59 109.315 1181.06 109.16 1180.42 109.16C1179.59 109.16 1178.91 109.448 1178.4 110.024C1177.89 110.589 1177.63 111.395 1177.63 112.44C1177.63 113.496 1177.89 114.312 1178.4 114.888C1178.91 115.464 1179.59 115.752 1180.42 115.752C1181.06 115.752 1181.59 115.603 1182.02 115.304C1182.45 115.005 1182.74 114.579 1182.9 114.024H1184.47C1184.23 114.92 1183.76 115.64 1183.06 116.184C1182.35 116.717 1181.47 116.984 1180.42 116.984C1179.59 116.984 1178.85 116.797 1178.19 116.424C1177.55 116.051 1177.05 115.523 1176.69 114.84C1176.33 114.157 1176.15 113.357 1176.15 112.44Z" fill="black"/>
<path id="Vector_75" d="M1174.23 108.072V116.84H1172.78V115.544C1172.5 115.992 1172.11 116.344 1171.61 116.6C1171.12 116.845 1170.57 116.968 1169.98 116.968C1169.29 116.968 1168.68 116.829 1168.14 116.552C1167.59 116.264 1167.16 115.837 1166.84 115.272C1166.53 114.707 1166.38 114.019 1166.38 113.208V108.072H1167.82V113.016C1167.82 113.88 1168.03 114.547 1168.47 115.016C1168.91 115.475 1169.51 115.704 1170.26 115.704C1171.04 115.704 1171.66 115.464 1172.1 114.984C1172.55 114.504 1172.78 113.805 1172.78 112.888V108.072H1174.23Z" fill="black"/>
<path id="Vector_76" d="M1160.05 116.984C1159.22 116.984 1158.48 116.797 1157.81 116.424C1157.14 116.051 1156.62 115.523 1156.24 114.84C1155.86 114.147 1155.68 113.347 1155.68 112.44C1155.68 111.544 1155.87 110.755 1156.25 110.072C1156.65 109.379 1157.18 108.851 1157.85 108.488C1158.53 108.115 1159.28 107.928 1160.11 107.928C1160.94 107.928 1161.69 108.115 1162.37 108.488C1163.04 108.851 1163.57 109.373 1163.95 110.056C1164.34 110.739 1164.54 111.533 1164.54 112.44C1164.54 113.347 1164.34 114.147 1163.93 114.84C1163.54 115.523 1163 116.051 1162.32 116.424C1161.64 116.797 1160.88 116.984 1160.05 116.984ZM1160.05 115.704C1160.57 115.704 1161.06 115.581 1161.52 115.336C1161.98 115.091 1162.34 114.723 1162.62 114.232C1162.91 113.741 1163.05 113.144 1163.05 112.44C1163.05 111.736 1162.92 111.139 1162.64 110.648C1162.36 110.157 1162 109.795 1161.55 109.56C1161.1 109.315 1160.62 109.192 1160.09 109.192C1159.56 109.192 1159.07 109.315 1158.62 109.56C1158.18 109.795 1157.83 110.157 1157.57 110.648C1157.3 111.139 1157.17 111.736 1157.17 112.44C1157.17 113.155 1157.29 113.757 1157.55 114.248C1157.82 114.739 1158.17 115.107 1158.61 115.352C1159.04 115.587 1159.52 115.704 1160.05 115.704Z" fill="black"/>
<path id="Vector_77" d="M1152.17 109.272V114.44C1152.17 114.867 1152.26 115.171 1152.44 115.352C1152.62 115.523 1152.94 115.608 1153.39 115.608H1154.46V116.84H1153.15C1152.33 116.84 1151.73 116.653 1151.32 116.28C1150.92 115.907 1150.71 115.293 1150.71 114.44V109.272H1149.58V108.072H1150.71V105.864H1152.17V108.072H1154.46V109.272H1152.17Z" fill="black"/>
<path id="Vector_78" d="M1147.66 110.36V111.592H1141.28V110.36H1147.66Z" fill="black"/>
<path id="Vector_79" d="M1135.62 107.912C1136.69 107.912 1137.55 108.237 1138.21 108.888C1138.87 109.528 1139.2 110.456 1139.2 111.672V116.84H1137.76V111.88C1137.76 111.005 1137.54 110.339 1137.11 109.88C1136.67 109.411 1136.07 109.176 1135.31 109.176C1134.55 109.176 1133.93 109.416 1133.47 109.896C1133.03 110.376 1132.8 111.075 1132.8 111.992V116.84H1131.35V108.072H1132.8V109.32C1133.09 108.872 1133.48 108.525 1133.97 108.28C1134.47 108.035 1135.02 107.912 1135.62 107.912Z" fill="black"/>
<path id="Vector_80" d="M1128.87 105.688V116.84H1127.41V105.688H1128.87Z" fill="black"/>
</g>
</g>
<g id="link">
<g id="material-symbols-light:link">
<path id="Vector_81" d="M1256.99 126.326L1255.11 129.327C1254.52 130.284 1253.67 130.889 1252.57 131.141C1251.48 131.394 1250.45 131.222 1249.5 130.624C1248.54 130.027 1247.93 129.18 1247.68 128.084C1247.43 126.988 1247.6 125.962 1248.2 125.006L1250.07 122.005L1250.92 122.535L1249.05 125.536C1248.6 126.254 1248.47 127.028 1248.66 127.858C1248.85 128.688 1249.31 129.328 1250.03 129.776C1250.74 130.225 1251.52 130.353 1252.35 130.161C1253.18 129.969 1253.82 129.515 1254.27 128.797L1256.14 125.796L1256.99 126.326ZM1252.83 126.225L1251.99 125.695L1255.7 119.759L1256.54 120.289L1252.83 126.225ZM1258.46 123.978L1257.61 123.448L1259.48 120.448C1259.93 119.73 1260.06 118.956 1259.87 118.126C1259.68 117.295 1259.22 116.656 1258.5 116.208C1257.79 115.759 1257.01 115.631 1256.18 115.823C1255.35 116.014 1254.71 116.469 1254.26 117.186L1252.39 120.187L1251.54 119.657L1253.42 116.657C1254.01 115.7 1254.86 115.095 1255.96 114.842C1257.05 114.588 1258.08 114.761 1259.03 115.36C1259.99 115.958 1260.6 116.805 1260.85 117.9C1261.1 118.995 1260.93 120.021 1260.33 120.978L1258.46 123.978Z" fill="#073B3A"/>
</g>
<g id="Link">
<path id="Vector_82" d="M1292.24 129.08L1288.8 125.208V129.08H1287.34V117.24H1288.8V124.2L1292.18 120.312H1294.21L1290.08 124.68L1294.22 129.08H1292.24Z" fill="black"/>
<path id="Vector_83" d="M1281.38 120.152C1282.45 120.152 1283.31 120.477 1283.97 121.128C1284.63 121.768 1284.96 122.696 1284.96 123.912V129.08H1283.52V124.12C1283.52 123.245 1283.31 122.579 1282.87 122.12C1282.43 121.651 1281.83 121.416 1281.08 121.416C1280.31 121.416 1279.7 121.656 1279.24 122.136C1278.79 122.616 1278.56 123.315 1278.56 124.232V129.08H1277.11V120.312H1278.56V121.56C1278.85 121.112 1279.24 120.765 1279.73 120.52C1280.23 120.275 1280.78 120.152 1281.38 120.152Z" fill="black"/>
<path id="Vector_84" d="M1273.92 118.888C1273.65 118.888 1273.41 118.792 1273.22 118.6C1273.03 118.408 1272.93 118.173 1272.93 117.896C1272.93 117.619 1273.03 117.384 1273.22 117.192C1273.41 117 1273.65 116.904 1273.92 116.904C1274.19 116.904 1274.41 117 1274.6 117.192C1274.79 117.384 1274.88 117.619 1274.88 117.896C1274.88 118.173 1274.79 118.408 1274.6 118.6C1274.41 118.792 1274.19 118.888 1273.92 118.888ZM1274.63 120.312V129.08H1273.17V120.312H1274.63Z" fill="black"/>
<path id="Vector_85" d="M1267.72 127.896H1271.63V129.08H1266.27V117.928H1267.72V127.896Z" fill="black"/>
</g>
</g>
</g>
</g>
<g id="Frame 19">
<g id="si:add-duotone">
<path id="Vector (Stroke)_12" fill-rule="evenodd" clip-rule="evenodd" d="M62 334.25C62.4142 334.25 62.75 334.586 62.75 335V340.25H68C68.4142 340.25 68.75 340.586 68.75 341C68.75 341.414 68.4142 341.75 68 341.75H62.75V347C62.75 347.414 62.4142 347.75 62 347.75C61.5858 347.75 61.25 347.414 61.25 347V341.75H56C55.5858 341.75 55.25 341.414 55.25 341C55.25 340.586 55.5858 340.25 56 340.25H61.25V335C61.25 334.586 61.5858 334.25 62 334.25Z" fill="black"/>
</g>
<g id="Add new job">
<path id="Vector_86" d="M178.582 337.872C178.881 337.349 179.318 336.923 179.894 336.592C180.47 336.261 181.126 336.096 181.862 336.096C182.651 336.096 183.361 336.283 183.99 336.656C184.619 337.029 185.115 337.557 185.478 338.24C185.841 338.912 186.022 339.696 186.022 340.592C186.022 341.477 185.841 342.267 185.478 342.96C185.115 343.653 184.614 344.192 183.974 344.576C183.345 344.96 182.641 345.152 181.862 345.152C181.105 345.152 180.438 344.987 179.862 344.656C179.297 344.325 178.87 343.904 178.582 343.392V345.008H177.126V333.168H178.582V337.872ZM184.534 340.592C184.534 339.931 184.401 339.355 184.134 338.864C183.867 338.373 183.505 338 183.046 337.744C182.598 337.488 182.102 337.36 181.558 337.36C181.025 337.36 180.529 337.493 180.07 337.76C179.622 338.016 179.259 338.395 178.982 338.896C178.715 339.387 178.582 339.957 178.582 340.608C178.582 341.269 178.715 341.851 178.982 342.352C179.259 342.843 179.622 343.221 180.07 343.488C180.529 343.744 181.025 343.872 181.558 343.872C182.102 343.872 182.598 343.744 183.046 343.488C183.505 343.221 183.867 342.843 184.134 342.352C184.401 341.851 184.534 341.264 184.534 340.592Z" fill="#343434"/>
<path id="Vector_87" d="M170.716 345.152C169.894 345.152 169.148 344.965 168.476 344.592C167.814 344.219 167.292 343.691 166.908 343.008C166.534 342.315 166.348 341.515 166.348 340.608C166.348 339.712 166.54 338.923 166.924 338.24C167.318 337.547 167.852 337.019 168.524 336.656C169.196 336.283 169.948 336.096 170.78 336.096C171.612 336.096 172.364 336.283 173.036 336.656C173.708 337.019 174.236 337.541 174.62 338.224C175.014 338.907 175.212 339.701 175.212 340.608C175.212 341.515 175.009 342.315 174.604 343.008C174.209 343.691 173.67 344.219 172.988 344.592C172.305 344.965 171.548 345.152 170.716 345.152ZM170.716 343.872C171.238 343.872 171.729 343.749 172.188 343.504C172.646 343.259 173.014 342.891 173.292 342.4C173.58 341.909 173.724 341.312 173.724 340.608C173.724 339.904 173.585 339.307 173.308 338.816C173.03 338.325 172.668 337.963 172.22 337.728C171.772 337.483 171.286 337.36 170.764 337.36C170.23 337.36 169.74 337.483 169.292 337.728C168.854 337.963 168.502 338.325 168.236 338.816C167.969 339.307 167.836 339.904 167.836 340.608C167.836 341.323 167.964 341.925 168.22 342.416C168.486 342.907 168.838 343.275 169.276 343.52C169.713 343.755 170.193 343.872 170.716 343.872Z" fill="#343434"/>
<path id="Vector_88" d="M163.707 334.816C163.429 334.816 163.195 334.72 163.003 334.528C162.821 334.336 162.731 334.101 162.731 333.824C162.731 333.547 162.821 333.312 163.003 333.12C163.195 332.928 163.429 332.832 163.707 332.832C163.984 332.832 164.213 332.928 164.395 333.12C164.587 333.312 164.683 333.547 164.683 333.824C164.683 334.101 164.587 334.336 164.395 334.528C164.213 334.72 163.984 334.816 163.707 334.816ZM164.427 346.912C164.427 347.691 164.229 348.261 163.835 348.624C163.44 348.987 162.864 349.168 162.107 349.168H161.259V347.936H161.867C162.272 347.936 162.555 347.856 162.715 347.696C162.885 347.536 162.971 347.264 162.971 346.88V336.24H164.427V346.912Z" fill="#343434"/>
<path id="Vector_89" d="M157.212 336.24L154.476 345.008H152.972L150.86 338.048L148.748 345.008H147.244L144.492 336.24H145.98L147.996 343.6L150.172 336.24H151.66L153.788 343.616L155.772 336.24H157.212Z" fill="#343434"/>
<path id="Vector_90" d="M143.61 340.288C143.61 340.565 143.594 340.859 143.562 341.168H136.554C136.608 342.032 136.901 342.709 137.434 343.2C137.978 343.68 138.634 343.92 139.402 343.92C140.032 343.92 140.554 343.776 140.97 343.488C141.397 343.189 141.696 342.795 141.866 342.304H143.434C143.2 343.147 142.73 343.835 142.026 344.368C141.322 344.891 140.448 345.152 139.402 345.152C138.57 345.152 137.824 344.965 137.162 344.592C136.512 344.219 136 343.691 135.626 343.008C135.253 342.315 135.066 341.515 135.066 340.608C135.066 339.701 135.248 338.907 135.61 338.224C135.973 337.541 136.48 337.019 137.13 336.656C137.792 336.283 138.549 336.096 139.402 336.096C140.234 336.096 140.97 336.277 141.61 336.64C142.25 337.003 142.741 337.504 143.082 338.144C143.434 338.773 143.61 339.488 143.61 340.288ZM142.106 339.984C142.106 339.429 141.984 338.955 141.738 338.56C141.493 338.155 141.157 337.851 140.73 337.648C140.314 337.435 139.85 337.328 139.338 337.328C138.602 337.328 137.973 337.563 137.45 338.032C136.938 338.501 136.645 339.152 136.57 339.984H142.106Z" fill="#343434"/>
<path id="Vector_91" d="M129.648 336.08C130.715 336.08 131.579 336.405 132.24 337.056C132.901 337.696 133.232 338.624 133.232 339.84V345.008H131.792V340.048C131.792 339.173 131.573 338.507 131.136 338.048C130.699 337.579 130.101 337.344 129.344 337.344C128.576 337.344 127.963 337.584 127.504 338.064C127.056 338.544 126.832 339.243 126.832 340.16V345.008H125.376V336.24H126.832V337.488C127.12 337.04 127.509 336.693 128 336.448C128.501 336.203 129.051 336.08 129.648 336.08Z" fill="#343434"/>
<path id="Vector_92" d="M109.754 340.592C109.754 339.696 109.935 338.912 110.298 338.24C110.66 337.557 111.156 337.029 111.786 336.656C112.426 336.283 113.14 336.096 113.93 336.096C114.612 336.096 115.247 336.256 115.834 336.576C116.42 336.885 116.868 337.296 117.178 337.808V333.168H118.65V345.008H117.178V343.36C116.89 343.883 116.463 344.315 115.898 344.656C115.332 344.987 114.671 345.152 113.914 345.152C113.135 345.152 112.426 344.96 111.786 344.576C111.156 344.192 110.66 343.653 110.298 342.96C109.935 342.267 109.754 341.477 109.754 340.592ZM117.178 340.608C117.178 339.947 117.044 339.371 116.778 338.88C116.511 338.389 116.148 338.016 115.69 337.76C115.242 337.493 114.746 337.36 114.202 337.36C113.658 337.36 113.162 337.488 112.714 337.744C112.266 338 111.908 338.373 111.642 338.864C111.375 339.355 111.242 339.931 111.242 340.592C111.242 341.264 111.375 341.851 111.642 342.352C111.908 342.843 112.266 343.221 112.714 343.488C113.162 343.744 113.658 343.872 114.202 343.872C114.746 343.872 115.242 343.744 115.69 343.488C116.148 343.221 116.511 342.843 116.778 342.352C117.044 341.851 117.178 341.269 117.178 340.608Z" fill="#343434"/>
<path id="Vector_93" d="M98.9413 340.592C98.9413 339.696 99.1226 338.912 99.4853 338.24C99.848 337.557 100.344 337.029 100.973 336.656C101.613 336.283 102.328 336.096 103.117 336.096C103.8 336.096 104.435 336.256 105.021 336.576C105.608 336.885 106.056 337.296 106.365 337.808V333.168H107.837V345.008H106.365V343.36C106.077 343.883 105.651 344.315 105.085 344.656C104.52 344.987 103.859 345.152 103.101 345.152C102.323 345.152 101.613 344.96 100.973 344.576C100.344 344.192 99.848 343.653 99.4853 342.96C99.1226 342.267 98.9413 341.477 98.9413 340.592ZM106.365 340.608C106.365 339.947 106.232 339.371 105.965 338.88C105.699 338.389 105.336 338.016 104.877 337.76C104.429 337.493 103.933 337.36 103.389 337.36C102.845 337.36 102.349 337.488 101.901 337.744C101.453 338 101.096 338.373 100.829 338.864C100.563 339.355 100.429 339.931 100.429 340.592C100.429 341.264 100.563 341.851 100.829 342.352C101.096 342.843 101.453 343.221 101.901 343.488C102.349 343.744 102.845 343.872 103.389 343.872C103.933 343.872 104.429 343.744 104.877 343.488C105.336 343.221 105.699 342.843 105.965 342.352C106.232 341.851 106.365 341.269 106.365 340.608Z" fill="#343434"/>
<path id="Vector_94" d="M95.296 342.528H90.432L89.536 345.008H88L92.032 333.92H93.712L97.728 345.008H96.192L95.296 342.528ZM94.88 341.344L92.864 335.712L90.848 341.344H94.88Z" fill="#343434"/>
</g>
</g>
<g id="Frame 20">
<g id="akar-icons:sort">
<path id="Vector (Stroke)_13" fill-rule="evenodd" clip-rule="evenodd" d="M1101 53C1101 52.4477 1101.45 52 1102 52H1120C1120.55 52 1121 52.4477 1121 53C1121 53.5523 1120.55 54 1120 54H1102C1101.45 54 1101 53.5523 1101 53ZM1104 59C1104 58.4477 1104.45 58 1105 58H1117C1117.55 58 1118 58.4477 1118 59C1118 59.5523 1117.55 60 1117 60H1105C1104.45 60 1104 59.5523 1104 59ZM1107 65C1107 64.4477 1107.45 64 1108 64H1114C1114.55 64 1115 64.4477 1115 65C1115 65.5523 1114.55 66 1114 66H1108C1107.45 66 1107 65.5523 1107 65Z" fill="black"/>
</g>
<g id="material-symbols-light:search">
<path id="Vector_95" d="M1174.49 67.154L1168.22 60.892C1167.72 61.318 1167.15 61.6477 1166.5 61.881C1165.85 62.1144 1165.19 62.231 1164.54 62.231C1162.94 62.231 1161.58 61.6767 1160.47 60.568C1159.36 59.4594 1158.81 58.1044 1158.81 56.503C1158.81 54.9017 1159.36 53.546 1160.47 52.436C1161.58 51.326 1162.93 50.7704 1164.53 50.769C1166.14 50.7677 1167.49 51.3224 1168.6 52.433C1169.71 53.5437 1170.27 54.8994 1170.27 56.5C1170.27 57.1947 1170.15 57.867 1169.9 58.517C1169.65 59.167 1169.33 59.723 1168.93 60.185L1175.19 66.446L1174.49 67.154ZM1164.54 61.23C1165.87 61.23 1166.99 60.7734 1167.9 59.86C1168.81 58.9467 1169.27 57.8264 1169.27 56.499C1169.27 55.1717 1168.81 54.0517 1167.9 53.139C1166.99 52.2264 1165.87 51.7697 1164.54 51.769C1163.21 51.7684 1162.09 52.225 1161.18 53.139C1160.26 54.053 1159.81 55.173 1159.81 56.499C1159.81 57.825 1160.27 58.945 1161.18 59.859C1162.09 60.773 1163.21 61.2297 1164.54 61.229" fill="black"/>
</g>
<g id="fluent:more-circle-20-regular">
<path id="Vector_96" d="M1219.4 59C1219.4 59.3183 1219.27 59.6235 1219.05 59.8486C1218.82 60.0736 1218.52 60.2 1218.2 60.2C1217.88 60.2 1217.58 60.0736 1217.35 59.8486C1217.13 59.6235 1217 59.3183 1217 59C1217 58.6818 1217.13 58.3765 1217.35 58.1515C1217.58 57.9265 1217.88 57.8 1218.2 57.8C1218.52 57.8 1218.82 57.9265 1219.05 58.1515C1219.27 58.3765 1219.4 58.6818 1219.4 59ZM1224.2 59C1224.2 59.3183 1224.07 59.6235 1223.85 59.8486C1223.62 60.0736 1223.32 60.2 1223 60.2C1222.68 60.2 1222.38 60.0736 1222.15 59.8486C1221.93 59.6235 1221.8 59.3183 1221.8 59C1221.8 58.6818 1221.93 58.3765 1222.15 58.1515C1222.38 57.9265 1222.68 57.8 1223 57.8C1223.32 57.8 1223.62 57.9265 1223.85 58.1515C1224.07 58.3765 1224.2 58.6818 1224.2 59ZM1229 59C1229 59.3183 1228.87 59.6235 1228.65 59.8486C1228.42 60.0736 1228.12 60.2 1227.8 60.2C1227.48 60.2 1227.18 60.0736 1226.95 59.8486C1226.73 59.6235 1226.6 59.3183 1226.6 59C1226.6 58.6818 1226.73 58.3765 1226.95 58.1515C1227.18 57.9265 1227.48 57.8 1227.8 57.8C1228.12 57.8 1228.42 57.9265 1228.65 58.1515C1228.87 58.3765 1229 58.6818 1229 59ZM1223 49.4C1220.45 49.4 1218.01 50.4115 1216.21 52.2118C1214.41 54.0121 1213.4 56.4539 1213.4 59C1213.4 61.5461 1214.41 63.9879 1216.21 65.7882C1218.01 67.5886 1220.45 68.6 1223 68.6C1225.55 68.6 1227.99 67.5886 1229.79 65.7882C1231.59 63.9879 1232.6 61.5461 1232.6 59C1232.6 56.4539 1231.59 54.0121 1229.79 52.2118C1227.99 50.4115 1225.55 49.4 1223 49.4ZM1214.6 59C1214.6 57.8969 1214.82 56.8046 1215.24 55.7855C1215.66 54.7663 1216.28 53.8403 1217.06 53.0603C1217.84 52.2803 1218.77 51.6616 1219.79 51.2394C1220.8 50.8173 1221.9 50.6 1223 50.6C1224.1 50.6 1225.2 50.8173 1226.21 51.2394C1227.23 51.6616 1228.16 52.2803 1228.94 53.0603C1229.72 53.8403 1230.34 54.7663 1230.76 55.7855C1231.18 56.8046 1231.4 57.8969 1231.4 59C1231.4 61.2278 1230.51 63.3644 1228.94 64.9397C1227.36 66.515 1225.23 67.4 1223 67.4C1220.77 67.4 1218.64 66.515 1217.06 64.9397C1215.48 63.3644 1214.6 61.2278 1214.6 59Z" fill="black"/>
</g>
<g id="More Places button" filter="url(#filter2_d_164_25)">
<rect x="1267" y="34" width="68.4554" height="50" rx="10" fill="#70E000" shape-rendering="crispEdges"/>
<rect x="1268" y="35" width="66.4554" height="48" rx="9" stroke="black" stroke-width="2" shape-rendering="crispEdges"/>
<g id="New">
<path id="Vector_97" d="M1309.05 65.4432L1306.06 55.625H1307.64L1309.77 63.142H1309.87L1311.96 55.625H1313.57L1315.65 63.1165H1315.75L1317.87 55.625H1319.46L1316.46 65.4432H1314.98L1312.83 57.9006H1312.68L1310.53 65.4432H1309.05Z" fill="black"/>
<path id="Vector_98" d="M1300.46 65.6478C1299.52 65.6478 1298.7 65.439 1298.02 65.0213C1297.33 64.5995 1296.81 64.0114 1296.44 63.2571C1296.07 62.4986 1295.89 61.6165 1295.89 60.6108C1295.89 59.6051 1296.07 58.7188 1296.44 57.9517C1296.81 57.1804 1297.32 56.5796 1297.98 56.1492C1298.65 55.7145 1299.42 55.4972 1300.31 55.4972C1300.82 55.4972 1301.33 55.5824 1301.83 55.7529C1302.32 55.9233 1302.78 56.2003 1303.19 56.5838C1303.6 56.9631 1303.92 57.4659 1304.17 58.0924C1304.41 58.7188 1304.53 59.4901 1304.53 60.4063V61.0455H1296.96V59.7415H1303C1303 59.1875 1302.89 58.6932 1302.66 58.2586C1302.45 57.8239 1302.14 57.4809 1301.73 57.2294C1301.33 56.978 1300.86 56.8523 1300.31 56.8523C1299.71 56.8523 1299.19 57.0015 1298.75 57.2997C1298.32 57.5938 1297.98 57.9773 1297.75 58.4503C1297.51 58.9233 1297.4 59.4304 1297.4 59.9716V60.8409C1297.4 61.5824 1297.52 62.211 1297.78 62.7266C1298.04 63.238 1298.4 63.6279 1298.86 63.8963C1299.32 64.1605 1299.86 64.2926 1300.46 64.2926C1300.86 64.2926 1301.22 64.2372 1301.54 64.1265C1301.86 64.0114 1302.14 63.8409 1302.38 63.6151C1302.61 63.385 1302.79 63.0995 1302.92 62.7586L1304.38 63.1676C1304.22 63.662 1303.97 64.0966 1303.6 64.4716C1303.24 64.8424 1302.79 65.1321 1302.26 65.3409C1301.73 65.5455 1301.13 65.6478 1300.46 65.6478Z" fill="black"/>
<path id="Vector_99" d="M1293.38 52.3523V65.4432H1291.85L1284.71 55.1648H1284.59V65.4432H1283V52.3523H1284.53L1291.69 62.6563H1291.82V52.3523H1293.38Z" fill="black"/>
</g>
</g>
</g>
</g>
<defs>
<filter id="filter0_d_164_25" x="0" y="0" width="1387" height="396" filterUnits="userSpaceOnUse" color-interpolation-filters="sRGB">
<feFlood flood-opacity="0" result="BackgroundImageFix"/>
<feColorMatrix in="SourceAlpha" type="matrix" values="0 0 0 0 0 0 0 0 0 0 0 0 0 0 0 0 0 0 127 0" result="hardAlpha"/>
<feOffset dy="4"/>
<feGaussianBlur stdDeviation="4"/>
<feComposite in2="hardAlpha" operator="out"/>
<feColorMatrix type="matrix" values="0 0 0 0 0.0439216 0 0 0 0 0.138039 0 0 0 0 0 0 0 0 0.41 0"/>
<feBlend mode="normal" in2="BackgroundImageFix" result="effect1_dropShadow_164_25"/>
<feBlend mode="normal" in="SourceGraphic" in2="effect1_dropShadow_164_25" result="shape"/>
</filter>
<filter id="filter1_d_164_25" x="39.5" y="91" width="1308.5" height="227" filterUnits="userSpaceOnUse" color-interpolation-filters="sRGB">
<feFlood flood-opacity="0" result="BackgroundImageFix"/>
<feColorMatrix in="SourceAlpha" type="matrix" values="0 0 0 0 0 0 0 0 0 0 0 0 0 0 0 0 0 0 127 0" result="hardAlpha"/>
<feOffset dy="4"/>
<feGaussianBlur stdDeviation="2"/>
<feComposite in2="hardAlpha" operator="out"/>
<feColorMatrix type="matrix" values="0 0 0 0 0 0 0 0 0 0 0 0 0 0 0 0 0 0 0.1 0"/>
<feBlend mode="normal" in2="BackgroundImageFix" result="effect1_dropShadow_164_25"/>
<feBlend mode="normal" in="SourceGraphic" in2="effect1_dropShadow_164_25" result="shape"/>
</filter>
<filter id="filter2_d_164_25" x="1261" y="32" width="80.4553" height="62" filterUnits="userSpaceOnUse" color-interpolation-filters="sRGB">
<feFlood flood-opacity="0" result="BackgroundImageFix"/>
<feColorMatrix in="SourceAlpha" type="matrix" values="0 0 0 0 0 0 0 0 0 0 0 0 0 0 0 0 0 0 127 0" result="hardAlpha"/>
<feOffset dy="4"/>
<feGaussianBlur stdDeviation="3"/>
<feComposite in2="hardAlpha" operator="out"/>
<feColorMatrix type="matrix" values="0 0 0 0 0.200789 0 0 0 0 0.425667 0 0 0 0 0.095846 0 0 0 0.25 0"/>
<feBlend mode="normal" in2="BackgroundImageFix" result="effect1_dropShadow_164_25"/>
<feBlend mode="normal" in="SourceGraphic" in2="effect1_dropShadow_164_25" result="shape"/>
</filter>
<linearGradient id="paint0_linear_164_25" x1="44.0008" y1="310" x2="1344" y2="310" gradientUnits="userSpaceOnUse">
<stop stop-color="#848484"/>
<stop offset="0.224624" stop-color="#4D4D4D"/>
<stop offset="0.54"/>
<stop offset="0.748066" stop-color="#3C3C3C"/>
<stop offset="1" stop-color="#848484"/>
</linearGradient>
</defs>
</svg>
