<svg width="25" height="24" viewBox="0 0 25 24" fill="none" xmlns="http://www.w3.org/2000/svg">
<path d="M5.43994 4.99194H19.4399C19.9922 4.99194 20.4399 5.43966 20.4399 5.99194V8.99194C20.4399 9.54423 19.9922 9.99194 19.4399 9.99194H5.43994C4.88766 9.99194 4.43994 9.54423 4.43994 8.99194V5.99194C4.43994 5.43966 4.88766 4.99194 5.43994 4.99194Z" fill="#F2F230"/>
<path fill-rule="evenodd" clip-rule="evenodd" d="M5.43994 5.49194C5.1638 5.49194 4.93994 5.7158 4.93994 5.99194V8.99194C4.93994 9.26809 5.1638 9.49194 5.43994 9.49194H19.4399C19.7161 9.49194 19.9399 9.26809 19.9399 8.99194V5.99194C19.9399 5.7158 19.7161 5.49194 19.4399 5.49194H5.43994ZM3.93994 5.99194C3.93994 5.16352 4.61151 4.49194 5.43994 4.49194H19.4399C20.2684 4.49194 20.9399 5.16352 20.9399 5.99194V8.99194C20.9399 9.82037 20.2684 10.4919 19.4399 10.4919H5.43994C4.61151 10.4919 3.93994 9.82037 3.93994 8.99194V5.99194Z" fill="#073B3A"/>
<path d="M5.43994 13.9919H19.4399C19.9922 13.9919 20.4399 14.4397 20.4399 14.9919V17.9919C20.4399 18.5442 19.9922 18.9919 19.4399 18.9919H5.43994C4.88766 18.9919 4.43994 18.5442 4.43994 17.9919V14.9919C4.43994 14.4397 4.88766 13.9919 5.43994 13.9919Z" fill="#F2F230"/>
<path fill-rule="evenodd" clip-rule="evenodd" d="M5.43994 14.4919C5.1638 14.4919 4.93994 14.7158 4.93994 14.9919V17.9919C4.93994 18.2681 5.1638 18.4919 5.43994 18.4919H19.4399C19.7161 18.4919 19.9399 18.2681 19.9399 17.9919V14.9919C19.9399 14.7158 19.7161 14.4919 19.4399 14.4919H5.43994ZM3.93994 14.9919C3.93994 14.1635 4.61151 13.4919 5.43994 13.4919H19.4399C20.2684 13.4919 20.9399 14.1635 20.9399 14.9919V17.9919C20.9399 18.8204 20.2684 19.4919 19.4399 19.4919H5.43994C4.61151 19.4919 3.93994 18.8204 3.93994 17.9919V14.9919Z" fill="#073B3A"/>
</svg>
