<svg width="18" height="18" viewBox="0 0 18 18" fill="none" xmlns="http://www.w3.org/2000/svg">
<g id="arcticons:microsoft-company-portal">
<path id="Vector" d="M3.83375 12.1436H2.453C2.40239 12.1437 2.35227 12.1338 2.3055 12.1145C2.25873 12.0952 2.21623 12.0668 2.18045 12.031C2.14467 11.9953 2.11631 11.9528 2.09699 11.906C2.07767 11.8592 2.06777 11.8091 2.06787 11.7585V2.90063C2.06787 2.68688 2.23962 2.5155 2.453 2.5155H15.5472C15.761 2.5155 15.9324 2.68725 15.9324 2.90063V11.7585C15.9324 11.9723 15.7606 12.1436 15.5472 12.1436H9.84612" stroke="#073B3A" stroke-width="0.5" stroke-linecap="round" stroke-linejoin="round"/>
<g id="Vector_2">
<path d="M3.0237 15.4754H10.6793C11.0528 9.04524 2.71208 8.77074 3.0237 15.4754Z" fill="#073B3A"/>
<path d="M6.60875 2.5155V5.51813M11.1399 2.5155V12.1436M15.9324 7.32938H9.16062M2.06787 7.32938H4.61262M11.1657 9.69525H15.9324M3.0237 15.4754H10.6793C11.0528 9.04524 2.71208 8.77074 3.0237 15.4754Z" stroke="#073B3A" stroke-width="0.5" stroke-linecap="round" stroke-linejoin="round"/>
</g>
<path id="Vector_3" d="M6.89766 10.1224C8.17386 10.1224 9.20841 9.0878 9.20841 7.8116C9.20841 6.53541 8.17386 5.50085 6.89766 5.50085C5.62147 5.50085 4.58691 6.53541 4.58691 7.8116C4.58691 9.0878 5.62147 10.1224 6.89766 10.1224Z" fill="#F2F230" stroke="#073B3A" stroke-width="0.5" stroke-linecap="round" stroke-linejoin="round"/>
</g>
</svg>
