<svg width="25" height="24" viewBox="0 0 25 24" fill="none" xmlns="http://www.w3.org/2000/svg">
<g id="stash:data-date-light">
<path id="Vector" d="M10.9561 6.99194C10.8234 6.99194 10.6963 7.04989 10.6025 7.15303C10.5087 7.25618 10.4561 7.39607 10.4561 7.54194C10.4561 7.68781 10.5087 7.82771 10.6025 7.93085C10.6963 8.034 10.8234 8.09194 10.9561 8.09194H13.9561C14.0887 8.09194 14.2158 8.034 14.3096 7.93085C14.4034 7.82771 14.4561 7.68781 14.4561 7.54194C14.4561 7.39607 14.4034 7.25618 14.3096 7.15303C14.2158 7.04989 14.0887 6.99194 13.9561 6.99194H10.9561ZM9.95605 13.0419C9.95605 13.3337 9.8507 13.6135 9.66316 13.8198C9.47562 14.0261 9.22127 14.1419 8.95605 14.1419C8.69084 14.1419 8.43648 14.0261 8.24895 13.8198C8.06141 13.6135 7.95605 13.3337 7.95605 13.0419C7.95605 12.7502 8.06141 12.4704 8.24895 12.2641C8.43648 12.0578 8.69084 11.9419 8.95605 11.9419C9.22127 11.9419 9.47562 12.0578 9.66316 12.2641C9.8507 12.4704 9.95605 12.7502 9.95605 13.0419ZM9.95605 16.8919C9.95605 17.1837 9.8507 17.4635 9.66316 17.6698C9.47562 17.8761 9.22127 17.9919 8.95605 17.9919C8.69084 17.9919 8.43648 17.8761 8.24895 17.6698C8.06141 17.4635 7.95605 17.1837 7.95605 16.8919C7.95605 16.6002 8.06141 16.3204 8.24895 16.1141C8.43648 15.9078 8.69084 15.7919 8.95605 15.7919C9.22127 15.7919 9.47562 15.9078 9.66316 16.1141C9.8507 16.3204 9.95605 16.6002 9.95605 16.8919ZM12.4561 14.1419C12.7213 14.1419 12.9756 14.0261 13.1632 13.8198C13.3507 13.6135 13.4561 13.3337 13.4561 13.0419C13.4561 12.7502 13.3507 12.4704 13.1632 12.2641C12.9756 12.0578 12.7213 11.9419 12.4561 11.9419C12.1908 11.9419 11.9365 12.0578 11.7489 12.2641C11.5614 12.4704 11.4561 12.7502 11.4561 13.0419C11.4561 13.3337 11.5614 13.6135 11.7489 13.8198C11.9365 14.0261 12.1908 14.1419 12.4561 14.1419ZM13.4561 16.8919C13.4561 17.1837 13.3507 17.4635 13.1632 17.6698C12.9756 17.8761 12.7213 17.9919 12.4561 17.9919C12.1908 17.9919 11.9365 17.8761 11.7489 17.6698C11.5614 17.4635 11.4561 17.1837 11.4561 16.8919C11.4561 16.6002 11.5614 16.3204 11.7489 16.1141C11.9365 15.9078 12.1908 15.7919 12.4561 15.7919C12.7213 15.7919 12.9756 15.9078 13.1632 16.1141C13.3507 16.3204 13.4561 16.6002 13.4561 16.8919ZM15.9561 14.1419C16.2213 14.1419 16.4756 14.0261 16.6632 13.8198C16.8507 13.6135 16.9561 13.3337 16.9561 13.0419C16.9561 12.7502 16.8507 12.4704 16.6632 12.2641C16.4756 12.0578 16.2213 11.9419 15.9561 11.9419C15.6908 11.9419 15.4365 12.0578 15.2489 12.2641C15.0614 12.4704 14.9561 12.7502 14.9561 13.0419C14.9561 13.3337 15.0614 13.6135 15.2489 13.8198C15.4365 14.0261 15.6908 14.1419 15.9561 14.1419Z" fill="#F2F230"/>
<path id="Vector_2" fill-rule="evenodd" clip-rule="evenodd" d="M8.45605 3.49194C8.58866 3.49194 8.71584 3.54462 8.80961 3.63839C8.90338 3.73216 8.95605 3.85934 8.95605 3.99194V4.99194H15.9561V3.99194C15.9561 3.85934 16.0087 3.73216 16.1025 3.63839C16.1963 3.54462 16.3234 3.49194 16.4561 3.49194C16.5887 3.49194 16.7158 3.54462 16.8096 3.63839C16.9034 3.73216 16.9561 3.85934 16.9561 3.99194V4.99494C17.2007 4.99694 17.4187 5.00561 17.6101 5.02094C17.9751 5.05094 18.2951 5.11394 18.5911 5.26394C19.0613 5.50384 19.4436 5.88645 19.6831 6.35694C19.8341 6.65294 19.8971 6.97294 19.9271 7.33694C19.9561 7.69194 19.9561 8.12894 19.9561 8.67094V16.3129C19.9561 16.8549 19.9561 17.2929 19.9271 17.6459C19.8971 18.0109 19.8341 18.3309 19.6831 18.6269C19.4434 19.0971 19.0612 19.4793 18.5911 19.7189C18.2951 19.8699 17.9751 19.9329 17.6111 19.9629C17.2561 19.9919 16.8191 19.9919 16.2781 19.9919H8.63505C8.09305 19.9919 7.65505 19.9919 7.30205 19.9629C6.93705 19.9329 6.61705 19.8699 6.32105 19.7189C5.85056 19.4795 5.46795 19.0972 5.22805 18.6269C5.07805 18.3309 5.01505 18.0109 4.98505 17.6469C4.95605 17.2919 4.95605 16.8539 4.95605 16.3119V8.67194C4.95605 8.19694 4.95605 7.80394 4.97605 7.47494L4.98505 7.33894C5.01505 6.97394 5.07805 6.65394 5.22805 6.35794C5.46778 5.8873 5.85041 5.50467 6.32105 5.26494C6.61705 5.11494 6.93705 5.05194 7.30105 5.02194C7.49372 5.00661 7.71205 4.99794 7.95605 4.99594V3.99194C7.95605 3.85934 8.00873 3.73216 8.1025 3.63839C8.19627 3.54462 8.32345 3.49194 8.45605 3.49194ZM7.95605 6.49194V5.99494C7.76486 5.99652 7.57376 6.00419 7.38305 6.01794C7.08105 6.04194 6.90705 6.08794 6.77505 6.15494C6.49256 6.2988 6.26291 6.52845 6.11905 6.81094C6.05205 6.94294 6.00605 7.11694 5.98205 7.41894C5.95605 7.72794 5.95605 8.12394 5.95605 8.69194V9.24194H18.9561V8.69194C18.9561 8.12394 18.9561 7.72794 18.9301 7.41894C18.9061 7.11694 18.8601 6.94294 18.7931 6.81094C18.6492 6.52845 18.4195 6.2988 18.1371 6.15494C18.0051 6.08794 17.8311 6.04194 17.5291 6.01794C17.3383 6.00419 17.1473 5.99652 16.9561 5.99494V6.49194C16.9561 6.62455 16.9034 6.75173 16.8096 6.8455C16.7158 6.93926 16.5887 6.99194 16.4561 6.99194C16.3234 6.99194 16.1963 6.93926 16.1025 6.8455C16.0087 6.75173 15.9561 6.62455 15.9561 6.49194V5.99194H8.95605V6.49194C8.95605 6.62455 8.90338 6.75173 8.80961 6.8455C8.71584 6.93926 8.58866 6.99194 8.45605 6.99194C8.32345 6.99194 8.19627 6.93926 8.1025 6.8455C8.00873 6.75173 7.95605 6.62455 7.95605 6.49194ZM18.9561 10.2419H5.95605V16.2919C5.95605 16.8599 5.95605 17.2569 5.98205 17.5649C6.00605 17.8669 6.05205 18.0409 6.11905 18.1729C6.26291 18.4554 6.49256 18.6851 6.77505 18.8289C6.90705 18.8959 7.08105 18.9419 7.38305 18.9659C7.69205 18.9919 8.08805 18.9919 8.65605 18.9919H16.2561C16.8241 18.9919 17.2211 18.9919 17.5291 18.9659C17.8311 18.9419 18.0051 18.8959 18.1371 18.8289C18.4195 18.6851 18.6492 18.4554 18.7931 18.1729C18.8601 18.0409 18.9061 17.8669 18.9301 17.5649C18.9561 17.2569 18.9561 16.8599 18.9561 16.2919V10.2419Z" fill="#073B3A"/>
</g>
</svg>
