<svg width="25" height="24" viewBox="0 0 25 24" fill="none" xmlns="http://www.w3.org/2000/svg">
<g id="material-symbols-light:link">
<path id="Vector" d="M14.9893 15.3261L13.1139 18.3274C12.5162 19.284 11.6698 19.8887 10.5748 20.1415C9.47973 20.3943 8.45346 20.2219 7.49594 19.6244C6.53842 19.0269 5.93361 18.18 5.68151 17.0839C5.42941 15.9877 5.6016 14.9617 6.19808 14.0059L8.07346 11.0046L8.92151 11.5346L7.04613 14.5358C6.59746 15.2538 6.46917 16.0278 6.66125 16.8577C6.85354 17.6885 7.30841 18.328 8.02586 18.7763C8.74331 19.2247 9.51726 19.3529 10.3477 19.1612C11.1782 18.9695 11.8176 18.5149 12.2659 17.7975L14.1412 14.7962L14.9893 15.3261ZM10.8345 15.2251L9.98647 14.6952L13.6959 8.75883L14.544 9.28875L10.8345 15.2251ZM16.4566 12.9779L15.6086 12.448L17.4834 9.44757C17.9321 8.72956 18.0604 7.95561 17.8683 7.12572C17.6766 6.29526 17.222 5.65588 16.5046 5.20757C15.7871 4.75926 15.0132 4.63096 14.1827 4.82269C13.3523 5.01442 12.7129 5.469 12.2646 6.18645L10.3897 9.18685L9.54166 8.65693L11.4165 5.65653C12.0143 4.69993 12.8608 4.09495 13.9562 3.84158C15.0516 3.5882 16.0777 3.76085 17.0345 4.35952C17.9913 4.95819 18.5961 5.80504 18.8489 6.90006C19.1017 7.99509 18.9295 9.02107 18.3323 9.97802L16.4566 12.9779Z" fill="#073B3A"/>
</g>
</svg>
