<svg width="25" height="24" viewBox="0 0 25 24" fill="none" xmlns="http://www.w3.org/2000/svg">
<g id="proicons:location">
<g id="Group">
<path id="Vector (Stroke)" fill-rule="evenodd" clip-rule="evenodd" d="M6.96575 5.28495C5.62295 6.62931 4.86865 8.45175 4.86865 10.352C4.86865 12.2534 5.62396 14.077 6.96844 15.4217L11.1543 19.6075C11.1543 19.6075 11.1544 19.6076 11.1543 19.6075C11.3887 19.8418 11.7067 19.9735 12.0381 19.9735C12.3695 19.9735 12.6873 19.8419 12.9218 19.6076C12.9217 19.6077 12.9218 19.6076 12.9218 19.6076L17.105 15.4244C18.4256 14.0755 19.161 12.2601 19.1514 10.3723C19.1419 8.48328 18.3872 6.67434 17.0515 5.33857C15.7157 4.0028 13.9068 3.24816 12.0177 3.23862C10.13 3.22908 8.31466 3.96442 6.96575 5.28495ZM5.91314 4.2163C7.54458 2.61748 9.74107 1.7271 12.0253 1.73864C14.3095 1.75017 16.4969 2.6627 18.1121 4.27791C19.7273 5.89312 20.6399 8.08051 20.6514 10.3647C20.6629 12.649 19.7726 14.8455 18.1737 16.4769L18.1684 16.4823L13.9824 20.6683C13.4667 21.1838 12.7673 21.4735 12.0381 21.4735C11.3089 21.4735 10.6095 21.1839 10.0938 20.6684L5.90775 16.4823C4.282 14.8564 3.36865 12.6512 3.36865 10.352C3.36865 8.05268 4.28198 5.84757 5.90772 4.22165L5.91314 4.2163Z" fill="#073B3A"/>
<path id="Vector" d="M15.0381 10.3519C15.0381 12.0088 13.6949 13.3519 12.0381 13.3519C10.3812 13.3519 9.03809 12.0088 9.03809 10.3519C9.03809 8.69507 10.3812 7.35193 12.0381 7.35193C13.6949 7.35193 15.0381 8.69507 15.0381 10.3519Z" fill="#F2F230"/>
<path id="Vector (Stroke)_2" fill-rule="evenodd" clip-rule="evenodd" d="M12.0381 8.10193C10.7954 8.10193 9.78809 9.10929 9.78809 10.3519C9.78809 11.5946 10.7954 12.6019 12.0381 12.6019C13.2807 12.6019 14.2881 11.5946 14.2881 10.3519C14.2881 9.10929 13.2807 8.10193 12.0381 8.10193ZM8.28809 10.3519C8.28809 8.28086 9.96702 6.60193 12.0381 6.60193C14.1092 6.60193 15.7881 8.28086 15.7881 10.3519C15.7881 12.423 14.1092 14.1019 12.0381 14.1019C9.96702 14.1019 8.28809 12.423 8.28809 10.3519Z" fill="#073B3A"/>
</g>
</g>
</svg>
