<svg width="25" height="24" viewBox="0 0 25 24" fill="none" xmlns="http://www.w3.org/2000/svg">
<path fill-rule="evenodd" clip-rule="evenodd" d="M17.4731 4.49194C16.0924 4.49194 14.9731 5.61123 14.9731 6.99194C14.9731 8.37266 16.0924 9.49194 17.4731 9.49194C18.8539 9.49194 19.9731 8.37266 19.9731 6.99194C19.9731 5.61123 18.8539 4.49194 17.4731 4.49194ZM13.9731 6.99194C13.9731 5.05895 15.5401 3.49194 17.4731 3.49194C19.4061 3.49194 20.9731 5.05895 20.9731 6.99194C20.9731 8.92494 19.4061 10.4919 17.4731 10.4919C15.5401 10.4919 13.9731 8.92494 13.9731 6.99194Z" fill="#073B3A"/>
<path fill-rule="evenodd" clip-rule="evenodd" d="M7.47314 14.4919C6.09243 14.4919 4.97314 15.6112 4.97314 16.9919C4.97314 18.3727 6.09243 19.4919 7.47314 19.4919C8.85386 19.4919 9.97314 18.3727 9.97314 16.9919C9.97314 15.6112 8.85386 14.4919 7.47314 14.4919ZM3.97314 16.9919C3.97314 15.0589 5.54015 13.4919 7.47314 13.4919C9.40614 13.4919 10.9731 15.0589 10.9731 16.9919C10.9731 18.9249 9.40614 20.4919 7.47314 20.4919C5.54015 20.4919 3.97314 18.9249 3.97314 16.9919Z" fill="#073B3A"/>
<path d="M14.4731 13.9919H20.4731V18.9919C20.4731 19.2572 20.3678 19.5115 20.1803 19.6991C19.9927 19.8866 19.7384 19.9919 19.4731 19.9919H15.4731C15.2079 19.9919 14.9536 19.8866 14.766 19.6991C14.5785 19.5115 14.4731 19.2572 14.4731 18.9919V13.9919Z" fill="#F2F230"/>
<path d="M4.47314 3.99194H10.4731V8.99194C10.4731 9.25716 10.3678 9.51151 10.1803 9.69905C9.99271 9.88659 9.73836 9.99194 9.47314 9.99194H5.47314C5.20793 9.99194 4.95357 9.88659 4.76604 9.69905C4.5785 9.51151 4.47314 9.25716 4.47314 8.99194V3.99194Z" fill="#F2F230"/>
<path fill-rule="evenodd" clip-rule="evenodd" d="M3.97314 3.99194C3.97314 3.7158 4.197 3.49194 4.47314 3.49194H10.4731C10.7493 3.49194 10.9731 3.7158 10.9731 3.99194V8.99194C10.9731 9.38977 10.8151 9.7713 10.5338 10.0526C10.2525 10.3339 9.87097 10.4919 9.47314 10.4919H5.47314C5.07532 10.4919 4.69379 10.3339 4.41248 10.0526C4.13118 9.7713 3.97314 9.38977 3.97314 8.99194V3.99194ZM4.97314 4.49194V8.99194C4.97314 9.12455 5.02582 9.25173 5.11959 9.3455C5.21336 9.43926 5.34054 9.49194 5.47314 9.49194H9.47314C9.60575 9.49194 9.73293 9.43926 9.8267 9.3455C9.92047 9.25173 9.97314 9.12455 9.97314 8.99194V4.49194H4.97314ZM13.9731 13.9919C13.9731 13.7158 14.197 13.4919 14.4731 13.4919H20.4731C20.7493 13.4919 20.9731 13.7158 20.9731 13.9919V18.9919C20.9731 19.3898 20.8151 19.7713 20.5338 20.0526C20.2525 20.3339 19.871 20.4919 19.4731 20.4919H15.4731C15.0753 20.4919 14.6938 20.3339 14.4125 20.0526C14.1312 19.7713 13.9731 19.3898 13.9731 18.9919V13.9919ZM14.9731 14.4919V18.9919C14.9731 19.1246 15.0258 19.2517 15.1196 19.3455C15.2134 19.4393 15.3405 19.4919 15.4731 19.4919H19.4731C19.6058 19.4919 19.7329 19.4393 19.8267 19.3455C19.9205 19.2517 19.9731 19.1246 19.9731 18.9919V14.4919H14.9731Z" fill="#073B3A"/>
</svg>
