<svg width="25" height="24" viewBox="0 0 25 24" fill="none" xmlns="http://www.w3.org/2000/svg">
<path d="M12.4092 11.385C11.5845 11.385 10.8782 11.091 10.2902 10.503C9.70218 9.91501 9.40851 9.20901 9.40918 8.38501C9.40985 7.56101 9.70351 6.85435 10.2902 6.26501C10.8768 5.67568 11.5832 5.38268 12.4092 5.38601C13.2352 5.38935 13.9415 5.68268 14.5282 6.26601C15.1148 6.84935 15.4085 7.55601 15.4092 8.38601C15.4098 9.21601 15.1162 9.92201 14.5282 10.504C13.9402 11.086 13.2338 11.379 12.4092 11.385ZM5.40918 18.616V16.97C5.40918 16.5573 5.52918 16.1713 5.76918 15.812C6.00985 15.452 6.33318 15.1727 6.73918 14.974C7.68318 14.5213 8.62785 14.182 9.57318 13.956C10.5178 13.7293 11.4632 13.616 12.4092 13.616C13.3552 13.616 14.3008 13.7293 15.2462 13.956C16.1915 14.1827 17.1355 14.522 18.0782 14.974C18.4848 15.1727 18.8082 15.452 19.0482 15.812C19.2888 16.1713 19.4092 16.5573 19.4092 16.97V18.616H5.40918ZM6.40918 17.616H18.4092V16.97C18.4092 16.7487 18.3375 16.5403 18.1942 16.345C18.0515 16.1503 17.8538 15.9857 17.6012 15.851C16.7785 15.4523 15.9298 15.147 15.0552 14.935C14.1805 14.723 13.2985 14.6167 12.4092 14.616C11.5198 14.6153 10.6378 14.7213 9.76318 14.934C8.88851 15.1467 8.03985 15.452 7.21718 15.85C6.96385 15.9847 6.76618 16.1493 6.62418 16.344C6.48085 16.5393 6.40918 16.748 6.40918 16.97V17.616ZM12.4092 10.386C12.9592 10.386 13.4302 10.19 13.8222 9.79801C13.909 9.71118 13.9862 9.62045 14.0538 9.52583C14.1679 9.36602 14.2545 9.19511 14.3137 9.01309C14.3776 8.81637 14.4094 8.60668 14.4092 8.38401C14.4085 7.83335 14.2128 7.36268 13.8222 6.97201C13.4315 6.58135 12.9605 6.38535 12.4092 6.38401C12.0817 6.38322 11.7826 6.45207 11.512 6.59055C11.4645 6.61487 11.4178 6.64135 11.3721 6.66998C11.2398 6.75271 11.1148 6.85338 10.9972 6.97201C10.6072 7.36535 10.4112 7.83601 10.4092 8.38401C10.4072 8.93201 10.6032 9.40301 10.9972 9.79701C11.3912 10.191 11.8618 10.3867 12.4092 10.384" fill="#073B3A"/>
<path d="M14.0538 9.52583C14.1679 9.36602 14.2545 9.19511 14.3137 9.01309C14.3661 8.83534 14.3937 8.63463 14.4092 8.38401C14.3724 7.75419 14.2504 7.45374 13.8222 6.97201C13.346 6.53733 13.0296 6.42841 12.4092 6.38401C12.0238 6.41525 11.7557 6.46833 11.512 6.59055C11.4645 6.61487 11.4178 6.64135 11.3721 6.66998C11.2496 6.74771 11.1289 6.84623 10.9972 6.97201C10.6093 7.40326 10.4603 7.69702 10.4092 8.38401C10.454 9.10118 10.6325 9.36642 10.9972 9.79701C11.3912 10.191 11.8618 10.3867 12.4092 10.384C13.0596 10.345 13.365 10.2092 13.8222 9.79801C13.9123 9.70271 13.9888 9.61348 14.0538 9.52583Z" fill="#F2F230"/>
</svg>
