<svg width="25" height="24" viewBox="0 0 25 24" fill="none" xmlns="http://www.w3.org/2000/svg">
<g id="lets-icons:status">
<path id="Vector" fill-rule="evenodd" clip-rule="evenodd" d="M19.7183 9.24494C19.3402 8.28696 18.7695 7.41684 18.0413 6.68852C17.3132 5.9602 16.4432 5.38921 15.4853 5.01094C15.2591 5.2677 15.0785 5.56127 14.9513 5.87894C15.8469 6.20452 16.6602 6.72244 17.334 7.39625C18.0078 8.07006 18.5257 8.88338 18.8513 9.77894C19.169 9.65175 19.4625 9.47114 19.7193 9.24494M12.9673 5.49494L12.7383 5.49194C11.443 5.49194 10.1772 5.87894 9.10341 6.60328C8.02958 7.32762 7.19666 8.35627 6.71148 9.55727C6.22631 10.7583 6.11103 12.0768 6.38042 13.3438C6.64981 14.6108 7.29159 15.7683 8.22342 16.6681C9.15526 17.5678 10.3346 18.1685 11.6103 18.3933C12.8859 18.6181 14.1996 18.4566 15.3829 17.9296C16.5661 17.4026 17.5649 16.5341 18.2511 15.4356C18.9374 14.337 19.2797 13.0584 19.2343 11.7639C19.5783 11.6559 19.9036 11.5143 20.2103 11.3389C20.2283 11.5543 20.2376 11.7719 20.2383 11.9919C20.2382 13.5031 19.7816 14.9791 18.9283 16.2263C18.075 17.4735 16.8649 18.4339 15.4564 18.9816C14.0479 19.5293 12.5069 19.6387 11.0352 19.2955C9.56345 18.9524 8.22973 18.1726 7.20877 17.0585C6.18781 15.9443 5.52723 14.5477 5.31361 13.0517C5.09998 11.5557 5.34326 10.03 6.01157 8.67464C6.67989 7.31926 7.74206 6.19738 9.0589 5.45601C10.3757 4.71464 11.8858 4.38837 13.3913 4.51994C13.2153 4.82922 13.0728 5.15641 12.9663 5.49594" fill="#073B3A"/>
<path id="Vector_2" d="M17.7383 9.99194C19.3951 9.99194 20.7383 8.6488 20.7383 6.99194C20.7383 5.33509 19.3951 3.99194 17.7383 3.99194C16.0814 3.99194 14.7383 5.33509 14.7383 6.99194C14.7383 8.6488 16.0814 9.99194 17.7383 9.99194Z" fill="#F2F230"/>
<path id="Vector (Stroke)" fill-rule="evenodd" clip-rule="evenodd" d="M17.7383 8.99194C18.8429 8.99194 19.7383 8.09651 19.7383 6.99194C19.7383 5.88737 18.8429 4.99194 17.7383 4.99194C16.6337 4.99194 15.7383 5.88737 15.7383 6.99194C15.7383 8.09651 16.6337 8.99194 17.7383 8.99194ZM20.7383 6.99194C20.7383 8.6488 19.3951 9.99194 17.7383 9.99194C16.0814 9.99194 14.7383 8.6488 14.7383 6.99194C14.7383 5.33509 16.0814 3.99194 17.7383 3.99194C19.3951 3.99194 20.7383 5.33509 20.7383 6.99194Z" fill="#073B3A"/>
</g>
</svg>
