<svg width="25" height="24" viewBox="0 0 25 24" fill="none" xmlns="http://www.w3.org/2000/svg">
<g id="jam:menu">
<path id="Vector" d="M6.56592 6.99194H11.5659C11.8311 6.99194 12.0855 7.0973 12.273 7.28484C12.4606 7.47237 12.5659 7.72673 12.5659 7.99194C12.5659 8.25716 12.4606 8.51151 12.273 8.69905C12.0855 8.88659 11.8311 8.99194 11.5659 8.99194H6.56592C6.3007 8.99194 6.04635 8.88659 5.85881 8.69905C5.67127 8.51151 5.56592 8.25716 5.56592 7.99194C5.56592 7.72673 5.67127 7.47237 5.85881 7.28484C6.04635 7.0973 6.3007 6.99194 6.56592 6.99194ZM13.5659 14.9919H18.5659C18.8311 14.9919 19.0855 15.0973 19.273 15.2848C19.4606 15.4724 19.5659 15.7267 19.5659 15.9919C19.5659 16.2572 19.4606 16.5115 19.273 16.699C19.0855 16.8866 18.8311 16.9919 18.5659 16.9919H13.5659C13.3007 16.9919 13.0463 16.8866 12.8588 16.699C12.6713 16.5115 12.5659 16.2572 12.5659 15.9919C12.5659 15.7267 12.6713 15.4724 12.8588 15.2848C13.0463 15.0973 13.3007 14.9919 13.5659 14.9919ZM6.56592 10.9919H18.5659C18.8311 10.9919 19.0855 11.0973 19.273 11.2848C19.4606 11.4724 19.5659 11.7267 19.5659 11.9919C19.5659 12.2572 19.4606 12.5115 19.273 12.699C19.0855 12.8866 18.8311 12.9919 18.5659 12.9919H6.56592C6.3007 12.9919 6.04635 12.8866 5.85881 12.699C5.67127 12.5115 5.56592 12.2572 5.56592 11.9919C5.56592 11.7267 5.67127 11.4724 5.85881 11.2848C6.04635 11.0973 6.3007 10.9919 6.56592 10.9919Z" fill="#073B3A"/>
</g>
</svg>
